<svg width="943" height="456" viewBox="0 0 943 456" fill="none" xmlns="http://www.w3.org/2000/svg">
<g filter="url(#filter0_f_29_28)">
<path d="M303 223.862C303 243.116 287.392 258.725 268.138 258.725C248.884 258.725 189 266.823 189 247.569C189 228.315 208.443 189 227.697 189C246.951 189 303 204.608 303 223.862Z" fill="#C92A2A"/>
</g>
<path d="M175.2 155.207C176.241 155.207 177.027 155.636 177.559 156.495C178.091 157.354 178.357 158.581 178.357 160.177C178.357 161.778 178.091 163.01 177.559 163.873C177.027 164.732 176.241 165.161 175.2 165.161C174.164 165.161 173.378 164.732 172.841 163.873C172.309 163.01 172.043 161.778 172.043 160.177C172.043 158.581 172.309 157.354 172.841 156.495C173.378 155.636 174.164 155.207 175.2 155.207ZM175.2 156.152C174.607 156.152 174.141 156.467 173.8 157.097C173.459 157.722 173.289 158.749 173.289 160.177C173.289 160.9 173.326 161.519 173.401 162.032C173.476 162.545 173.59 162.963 173.744 163.285C173.903 163.602 174.101 163.836 174.339 163.985C174.582 164.134 174.869 164.209 175.2 164.209C175.601 164.209 175.944 164.071 176.229 163.796C176.518 163.521 176.738 163.087 176.887 162.494C177.041 161.897 177.118 161.124 177.118 160.177C177.118 159.216 177.05 158.439 176.915 157.846C176.784 157.253 176.577 156.824 176.292 156.558C176.012 156.287 175.648 156.152 175.2 156.152ZM176.621 156.495L176.929 157.524L173.863 163.733L173.429 162.914L176.621 156.495ZM177.069 180.543H173.254L172.484 183H171.287L174.423 173.361H175.977L179.113 183H177.839L177.069 180.543ZM173.569 179.535H176.754L175.172 174.383L173.569 179.535ZM174.759 191.207C175.366 191.207 175.888 191.317 176.327 191.536C176.77 191.751 177.113 192.042 177.356 192.411C177.599 192.775 177.72 193.176 177.72 193.615C177.72 194.002 177.634 194.355 177.461 194.672C177.288 194.989 177.06 195.251 176.775 195.456C176.49 195.661 176.178 195.797 175.837 195.862C176.215 195.89 176.57 195.997 176.901 196.184C177.232 196.366 177.503 196.627 177.713 196.968C177.923 197.304 178.028 197.722 178.028 198.221C178.028 198.776 177.888 199.278 177.608 199.726C177.328 200.169 176.936 200.519 176.432 200.776C175.933 201.033 175.349 201.161 174.682 201.161C174.145 201.161 173.609 201.058 173.072 200.853C172.54 200.648 172.09 200.321 171.721 199.873L172.512 199.229C172.787 199.551 173.114 199.791 173.492 199.95C173.875 200.109 174.262 200.188 174.654 200.188C175.326 200.188 175.851 200.013 176.229 199.663C176.607 199.308 176.796 198.828 176.796 198.221C176.796 197.764 176.707 197.402 176.53 197.136C176.357 196.87 176.122 196.681 175.823 196.569C175.524 196.452 175.184 196.394 174.801 196.394H173.989L174.136 195.463H174.703C175.016 195.463 175.31 195.405 175.585 195.288C175.865 195.167 176.094 194.98 176.271 194.728C176.448 194.476 176.537 194.161 176.537 193.783C176.537 193.251 176.36 192.845 176.005 192.565C175.65 192.285 175.221 192.145 174.717 192.145C174.297 192.145 173.931 192.22 173.618 192.369C173.305 192.514 172.99 192.735 172.673 193.034L172.022 192.313C172.433 191.926 172.869 191.646 173.331 191.473C173.793 191.296 174.269 191.207 174.759 191.207ZM176.229 209.361V218.72H175.053V210.635L172.841 211.979L172.33 211.139L175.2 209.361H176.229ZM178.245 218.041V219H172.68V218.041H178.245ZM177.818 227.361L177.643 228.299H173.835V231.337C174.129 231.178 174.407 231.071 174.668 231.015C174.934 230.954 175.212 230.924 175.501 230.924C176.024 230.924 176.483 231.043 176.88 231.281C177.277 231.514 177.585 231.857 177.804 232.31C178.023 232.763 178.133 233.309 178.133 233.948C178.133 234.587 177.998 235.15 177.727 235.635C177.461 236.12 177.085 236.496 176.6 236.762C176.115 237.028 175.538 237.161 174.871 237.161C174.292 237.161 173.774 237.058 173.317 236.853C172.864 236.648 172.451 236.363 172.078 235.999L172.806 235.299C173.1 235.598 173.415 235.822 173.751 235.971C174.092 236.116 174.47 236.188 174.885 236.188C175.52 236.188 176.014 235.997 176.369 235.614C176.724 235.227 176.901 234.66 176.901 233.913C176.901 233.395 176.824 232.987 176.67 232.688C176.516 232.389 176.306 232.177 176.04 232.051C175.779 231.92 175.487 231.855 175.165 231.855C174.88 231.855 174.628 231.883 174.409 231.939C174.19 231.99 173.94 232.07 173.66 232.177H172.715V227.361H177.818ZM177.44 250.135C177.44 249.295 177.351 248.623 177.174 248.119C176.997 247.615 176.763 247.237 176.474 246.985C176.185 246.733 175.867 246.565 175.522 246.481C175.181 246.397 174.845 246.355 174.514 246.355H173.38V254.027H174.528C174.873 254.027 175.216 253.973 175.557 253.866C175.902 253.754 176.217 253.558 176.502 253.278C176.787 252.993 177.013 252.599 177.181 252.095C177.354 251.586 177.44 250.933 177.44 250.135ZM178.735 250.135C178.735 250.938 178.649 251.624 178.476 252.193C178.308 252.758 178.077 253.224 177.783 253.593C177.489 253.962 177.153 254.249 176.775 254.454C176.402 254.655 176.007 254.797 175.592 254.881C175.181 254.96 174.778 255 174.381 255H172.169V245.361H174.227C174.792 245.361 175.34 245.424 175.872 245.55C176.409 245.676 176.892 245.909 177.321 246.25C177.755 246.586 178.098 247.067 178.35 247.692C178.607 248.317 178.735 249.132 178.735 250.135ZM178.525 266.063C178.525 266.544 178.42 266.964 178.21 267.323C178.005 267.682 177.725 267.979 177.37 268.212C177.015 268.445 176.616 268.616 176.173 268.723L179.029 273H177.573L174.941 268.863H173.639V273H172.421V263.361H174.899C176.089 263.361 176.99 263.59 177.601 264.047C178.217 264.5 178.525 265.172 178.525 266.063ZM177.223 266.063C177.223 265.442 177.046 264.999 176.691 264.733C176.336 264.462 175.786 264.327 175.039 264.327H173.639V267.911H175.039C175.73 267.911 176.266 267.771 176.649 267.491C177.032 267.206 177.223 266.73 177.223 266.063ZM175.389 291.161C174.628 291.161 173.966 290.977 173.401 290.608C172.841 290.239 172.407 289.686 172.099 288.949C171.791 288.212 171.637 287.288 171.637 286.177C171.637 285.346 171.747 284.621 171.966 284C172.19 283.379 172.491 282.861 172.869 282.446C173.252 282.031 173.683 281.72 174.164 281.515C174.649 281.31 175.151 281.207 175.669 281.207C176.299 281.207 176.822 281.298 177.237 281.48C177.652 281.657 178.049 281.919 178.427 282.264L177.692 283.027C177.398 282.752 177.088 282.549 176.761 282.418C176.439 282.287 176.077 282.222 175.676 282.222C175.326 282.222 174.988 282.29 174.661 282.425C174.334 282.56 174.04 282.782 173.779 283.09C173.522 283.393 173.317 283.797 173.163 284.301C173.014 284.805 172.939 285.43 172.939 286.177C172.939 287.106 173.035 287.862 173.226 288.445C173.422 289.028 173.709 289.458 174.087 289.733C174.47 290.004 174.941 290.139 175.501 290.139C175.837 290.139 176.154 290.099 176.453 290.02C176.756 289.941 177.05 289.826 177.335 289.677V286.737H175.438L175.291 285.729H178.539V290.321C178.105 290.554 177.643 290.753 177.153 290.916C176.663 291.079 176.075 291.161 175.389 291.161Z" fill="url(#paint0_linear_29_28)"/>
<path d="M222.1 146.103C222.62 146.103 223.014 146.318 223.28 146.747C223.546 147.177 223.678 147.79 223.678 148.588C223.678 149.389 223.546 150.005 223.28 150.436C223.014 150.866 222.62 151.081 222.1 151.081C221.582 151.081 221.189 150.866 220.921 150.436C220.655 150.005 220.522 149.389 220.522 148.588C220.522 147.79 220.655 147.177 220.921 146.747C221.189 146.318 221.582 146.103 222.1 146.103ZM222.1 146.576C221.804 146.576 221.57 146.733 221.4 147.048C221.23 147.361 221.145 147.874 221.145 148.588C221.145 148.95 221.163 149.259 221.201 149.516C221.238 149.773 221.295 149.981 221.372 150.142C221.451 150.301 221.551 150.418 221.67 150.492C221.791 150.567 221.934 150.604 222.1 150.604C222.301 150.604 222.472 150.536 222.615 150.398C222.759 150.26 222.869 150.043 222.944 149.747C223.021 149.448 223.059 149.062 223.059 148.588C223.059 148.108 223.025 147.719 222.958 147.423C222.892 147.127 222.788 146.912 222.646 146.779C222.506 146.644 222.324 146.576 222.1 146.576ZM222.811 146.747L222.965 147.262L221.432 150.366L221.215 149.957L222.811 146.747ZM223.035 158.771H221.127L220.742 160H220.144L221.712 155.18H222.489L224.057 160H223.42L223.035 158.771ZM221.285 158.267H222.877L222.086 155.691L221.285 158.267ZM221.88 164.103C222.183 164.103 222.444 164.158 222.664 164.268C222.885 164.375 223.057 164.521 223.178 164.705C223.299 164.887 223.36 165.088 223.36 165.307C223.36 165.501 223.317 165.677 223.231 165.836C223.144 165.995 223.03 166.125 222.888 166.228C222.745 166.331 222.589 166.398 222.419 166.431C222.608 166.445 222.785 166.499 222.951 166.592C223.116 166.683 223.252 166.814 223.357 166.984C223.462 167.152 223.514 167.361 223.514 167.61C223.514 167.888 223.444 168.139 223.304 168.363C223.164 168.585 222.968 168.76 222.716 168.888C222.466 169.016 222.175 169.081 221.841 169.081C221.573 169.081 221.304 169.029 221.036 168.926C220.77 168.824 220.545 168.66 220.361 168.436L220.756 168.114C220.894 168.275 221.057 168.396 221.246 168.475C221.437 168.554 221.631 168.594 221.827 168.594C222.163 168.594 222.426 168.506 222.615 168.331C222.804 168.154 222.898 167.914 222.898 167.61C222.898 167.382 222.854 167.201 222.765 167.068C222.679 166.935 222.561 166.84 222.412 166.784C222.262 166.726 222.092 166.697 221.901 166.697H221.495L221.568 166.231H221.852C222.008 166.231 222.155 166.202 222.293 166.144C222.433 166.083 222.547 165.99 222.636 165.864C222.724 165.738 222.769 165.58 222.769 165.391C222.769 165.125 222.68 164.922 222.503 164.782C222.325 164.642 222.111 164.572 221.859 164.572C221.649 164.572 221.465 164.61 221.309 164.684C221.153 164.757 220.995 164.868 220.837 165.017L220.511 164.656C220.716 164.463 220.935 164.323 221.166 164.236C221.397 164.148 221.635 164.103 221.88 164.103ZM222.615 173.18V177.86H222.027V173.817L220.921 174.489L220.665 174.069L222.1 173.18H222.615ZM223.623 177.52V178H220.84V177.52H223.623ZM223.409 182.18L223.322 182.649H221.418V184.168C221.565 184.089 221.703 184.035 221.834 184.007C221.967 183.977 222.106 183.962 222.251 183.962C222.512 183.962 222.742 184.021 222.94 184.14C223.138 184.257 223.292 184.429 223.402 184.655C223.512 184.881 223.567 185.154 223.567 185.474C223.567 185.794 223.499 186.075 223.364 186.317C223.231 186.56 223.043 186.748 222.8 186.881C222.557 187.014 222.269 187.081 221.936 187.081C221.646 187.081 221.387 187.029 221.159 186.926C220.932 186.824 220.726 186.681 220.539 186.499L220.903 186.149C221.05 186.299 221.208 186.411 221.376 186.486C221.546 186.558 221.735 186.594 221.943 186.594C222.26 186.594 222.507 186.498 222.685 186.307C222.862 186.113 222.951 185.83 222.951 185.456C222.951 185.197 222.912 184.993 222.835 184.844C222.758 184.695 222.653 184.588 222.52 184.525C222.389 184.46 222.244 184.427 222.083 184.427C221.94 184.427 221.814 184.441 221.705 184.469C221.595 184.495 221.47 184.535 221.33 184.588H220.858V182.18H223.409ZM223.22 193.567C223.22 193.147 223.176 192.811 223.087 192.559C222.998 192.307 222.882 192.118 222.737 191.992C222.592 191.866 222.434 191.782 222.261 191.74C222.091 191.698 221.923 191.677 221.757 191.677H221.19V195.513H221.764C221.937 195.513 222.108 195.487 222.279 195.433C222.451 195.377 222.609 195.279 222.751 195.139C222.893 194.997 223.007 194.799 223.091 194.547C223.177 194.293 223.22 193.966 223.22 193.567ZM223.868 193.567C223.868 193.969 223.824 194.312 223.738 194.596C223.654 194.879 223.539 195.112 223.392 195.296C223.245 195.481 223.077 195.624 222.888 195.727C222.701 195.827 222.504 195.898 222.296 195.94C222.091 195.98 221.889 196 221.691 196H220.585V191.18H221.614C221.896 191.18 222.17 191.212 222.436 191.275C222.704 191.338 222.946 191.455 223.161 191.625C223.378 191.793 223.549 192.033 223.675 192.346C223.803 192.659 223.868 193.066 223.868 193.567ZM221.918 200.103L222.408 200.31L221.127 203.358H223.7V203.827H220.504V203.4L221.918 200.103ZM223.077 201.99V205H222.51L222.506 203.47L222.587 201.99H223.077ZM222.615 209.18V213.86H222.027V209.817L220.921 210.489L220.665 210.069L222.1 209.18H222.615ZM223.623 213.52V214H220.84V213.52H223.623Z" fill="url(#paint1_linear_29_28)"/>
<path d="M239.1 250.103C239.62 250.103 240.014 250.318 240.28 250.747C240.546 251.177 240.678 251.79 240.678 252.588C240.678 253.389 240.546 254.005 240.28 254.436C240.014 254.866 239.62 255.081 239.1 255.081C238.582 255.081 238.189 254.866 237.921 254.436C237.655 254.005 237.522 253.389 237.522 252.588C237.522 251.79 237.655 251.177 237.921 250.747C238.189 250.318 238.582 250.103 239.1 250.103ZM239.1 250.576C238.804 250.576 238.57 250.733 238.4 251.048C238.23 251.361 238.145 251.874 238.145 252.588C238.145 252.95 238.163 253.259 238.201 253.516C238.238 253.773 238.295 253.981 238.372 254.142C238.451 254.301 238.551 254.418 238.67 254.492C238.791 254.567 238.934 254.604 239.1 254.604C239.301 254.604 239.472 254.536 239.615 254.398C239.759 254.26 239.869 254.043 239.944 253.747C240.021 253.448 240.059 253.062 240.059 252.588C240.059 252.108 240.025 251.719 239.958 251.423C239.892 251.127 239.788 250.912 239.646 250.779C239.506 250.644 239.324 250.576 239.1 250.576ZM239.811 250.747L239.965 251.262L238.432 254.366L238.215 253.957L239.811 250.747ZM240.035 262.771H238.127L237.742 264H237.144L238.712 259.18H239.489L241.057 264H240.42L240.035 262.771ZM238.285 262.267H239.877L239.086 259.691L238.285 262.267ZM238.88 268.103C239.183 268.103 239.444 268.158 239.664 268.268C239.885 268.375 240.057 268.521 240.178 268.705C240.299 268.887 240.36 269.088 240.36 269.307C240.36 269.501 240.317 269.677 240.231 269.836C240.144 269.995 240.03 270.125 239.888 270.228C239.745 270.331 239.589 270.398 239.419 270.431C239.608 270.445 239.785 270.499 239.951 270.592C240.116 270.683 240.252 270.814 240.357 270.984C240.462 271.152 240.514 271.361 240.514 271.61C240.514 271.888 240.444 272.139 240.304 272.363C240.164 272.585 239.968 272.76 239.716 272.888C239.466 273.016 239.175 273.081 238.841 273.081C238.573 273.081 238.304 273.029 238.036 272.926C237.77 272.824 237.545 272.66 237.361 272.436L237.756 272.114C237.894 272.275 238.057 272.396 238.246 272.475C238.437 272.554 238.631 272.594 238.827 272.594C239.163 272.594 239.426 272.506 239.615 272.331C239.804 272.154 239.898 271.914 239.898 271.61C239.898 271.382 239.854 271.201 239.765 271.068C239.679 270.935 239.561 270.84 239.412 270.784C239.262 270.726 239.092 270.697 238.901 270.697H238.495L238.568 270.231H238.852C239.008 270.231 239.155 270.202 239.293 270.144C239.433 270.083 239.547 269.99 239.636 269.864C239.724 269.738 239.769 269.58 239.769 269.391C239.769 269.125 239.68 268.922 239.503 268.782C239.325 268.642 239.111 268.572 238.859 268.572C238.649 268.572 238.465 268.61 238.309 268.684C238.153 268.757 237.995 268.868 237.837 269.017L237.511 268.656C237.716 268.463 237.935 268.323 238.166 268.236C238.397 268.148 238.635 268.103 238.88 268.103ZM239.615 277.18V281.86H239.027V277.817L237.921 278.489L237.665 278.069L239.1 277.18H239.615ZM240.623 281.52V282H237.84V281.52H240.623ZM240.409 286.18L240.322 286.649H238.418V288.168C238.565 288.089 238.703 288.035 238.834 288.007C238.967 287.977 239.106 287.962 239.251 287.962C239.512 287.962 239.742 288.021 239.94 288.14C240.138 288.257 240.292 288.429 240.402 288.655C240.512 288.881 240.567 289.154 240.567 289.474C240.567 289.794 240.499 290.075 240.364 290.317C240.231 290.56 240.043 290.748 239.8 290.881C239.557 291.014 239.269 291.081 238.936 291.081C238.646 291.081 238.387 291.029 238.159 290.926C237.932 290.824 237.726 290.681 237.539 290.499L237.903 290.149C238.05 290.299 238.208 290.411 238.376 290.486C238.546 290.558 238.735 290.594 238.943 290.594C239.26 290.594 239.507 290.498 239.685 290.307C239.862 290.113 239.951 289.83 239.951 289.456C239.951 289.197 239.912 288.993 239.835 288.844C239.758 288.695 239.653 288.588 239.52 288.525C239.389 288.46 239.244 288.427 239.083 288.427C238.94 288.427 238.814 288.441 238.705 288.469C238.595 288.495 238.47 288.535 238.33 288.588H237.858V286.18H240.409ZM240.22 297.567C240.22 297.147 240.176 296.811 240.087 296.559C239.998 296.307 239.882 296.118 239.737 295.992C239.592 295.866 239.434 295.782 239.261 295.74C239.091 295.698 238.923 295.677 238.757 295.677H238.19V299.513H238.764C238.937 299.513 239.108 299.487 239.279 299.433C239.451 299.377 239.609 299.279 239.751 299.139C239.893 298.997 240.007 298.799 240.091 298.547C240.177 298.293 240.22 297.966 240.22 297.567ZM240.868 297.567C240.868 297.969 240.824 298.312 240.738 298.596C240.654 298.879 240.539 299.112 240.392 299.296C240.245 299.481 240.077 299.624 239.888 299.727C239.701 299.827 239.504 299.898 239.296 299.94C239.091 299.98 238.889 300 238.691 300H237.585V295.18H238.614C238.896 295.18 239.17 295.212 239.436 295.275C239.704 295.338 239.946 295.455 240.161 295.625C240.378 295.793 240.549 296.033 240.675 296.346C240.803 296.659 240.868 297.066 240.868 297.567ZM238.918 304.103L239.408 304.31L238.127 307.358H240.7V307.827H237.504V307.4L238.918 304.103ZM240.077 305.99V309H239.51L239.506 307.47L239.587 305.99H240.077ZM239.615 313.18V317.86H239.027V313.817L237.921 314.489L237.665 314.069L239.1 313.18H239.615ZM240.623 317.52V318H237.84V317.52H240.623Z" fill="url(#paint2_linear_29_28)"/>
<path d="M260.1 182.103C260.62 182.103 261.014 182.318 261.28 182.747C261.546 183.177 261.678 183.79 261.678 184.588C261.678 185.389 261.546 186.005 261.28 186.436C261.014 186.866 260.62 187.081 260.1 187.081C259.582 187.081 259.189 186.866 258.921 186.436C258.655 186.005 258.522 185.389 258.522 184.588C258.522 183.79 258.655 183.177 258.921 182.747C259.189 182.318 259.582 182.103 260.1 182.103ZM260.1 182.576C259.804 182.576 259.57 182.733 259.4 183.048C259.23 183.361 259.145 183.874 259.145 184.588C259.145 184.95 259.163 185.259 259.201 185.516C259.238 185.773 259.295 185.981 259.372 186.142C259.451 186.301 259.551 186.418 259.67 186.492C259.791 186.567 259.934 186.604 260.1 186.604C260.301 186.604 260.472 186.536 260.615 186.398C260.759 186.26 260.869 186.043 260.944 185.747C261.021 185.448 261.059 185.062 261.059 184.588C261.059 184.108 261.025 183.719 260.958 183.423C260.892 183.127 260.788 182.912 260.646 182.779C260.506 182.644 260.324 182.576 260.1 182.576ZM260.811 182.747L260.965 183.262L259.432 186.366L259.215 185.957L260.811 182.747ZM261.035 194.771H259.127L258.742 196H258.144L259.712 191.18H260.489L262.057 196H261.42L261.035 194.771ZM259.285 194.267H260.877L260.086 191.691L259.285 194.267ZM259.88 200.103C260.183 200.103 260.444 200.158 260.664 200.268C260.885 200.375 261.057 200.521 261.178 200.705C261.299 200.887 261.36 201.088 261.36 201.307C261.36 201.501 261.317 201.677 261.231 201.836C261.144 201.995 261.03 202.125 260.888 202.228C260.745 202.331 260.589 202.398 260.419 202.431C260.608 202.445 260.785 202.499 260.951 202.592C261.116 202.683 261.252 202.814 261.357 202.984C261.462 203.152 261.514 203.361 261.514 203.61C261.514 203.888 261.444 204.139 261.304 204.363C261.164 204.585 260.968 204.76 260.716 204.888C260.466 205.016 260.175 205.081 259.841 205.081C259.573 205.081 259.304 205.029 259.036 204.926C258.77 204.824 258.545 204.66 258.361 204.436L258.756 204.114C258.894 204.275 259.057 204.396 259.246 204.475C259.437 204.554 259.631 204.594 259.827 204.594C260.163 204.594 260.426 204.506 260.615 204.331C260.804 204.154 260.898 203.914 260.898 203.61C260.898 203.382 260.854 203.201 260.765 203.068C260.679 202.935 260.561 202.84 260.412 202.784C260.262 202.726 260.092 202.697 259.901 202.697H259.495L259.568 202.231H259.852C260.008 202.231 260.155 202.202 260.293 202.144C260.433 202.083 260.547 201.99 260.636 201.864C260.724 201.738 260.769 201.58 260.769 201.391C260.769 201.125 260.68 200.922 260.503 200.782C260.325 200.642 260.111 200.572 259.859 200.572C259.649 200.572 259.465 200.61 259.309 200.684C259.153 200.757 258.995 200.868 258.837 201.017L258.511 200.656C258.716 200.463 258.935 200.323 259.166 200.236C259.397 200.148 259.635 200.103 259.88 200.103ZM260.615 209.18V213.86H260.027V209.817L258.921 210.489L258.665 210.069L260.1 209.18H260.615ZM261.623 213.52V214H258.84V213.52H261.623ZM261.409 218.18L261.322 218.649H259.418V220.168C259.565 220.089 259.703 220.035 259.834 220.007C259.967 219.977 260.106 219.962 260.251 219.962C260.512 219.962 260.742 220.021 260.94 220.14C261.138 220.257 261.292 220.429 261.402 220.655C261.512 220.881 261.567 221.154 261.567 221.474C261.567 221.794 261.499 222.075 261.364 222.317C261.231 222.56 261.043 222.748 260.8 222.881C260.557 223.014 260.269 223.081 259.936 223.081C259.646 223.081 259.387 223.029 259.159 222.926C258.932 222.824 258.726 222.681 258.539 222.499L258.903 222.149C259.05 222.299 259.208 222.411 259.376 222.486C259.546 222.558 259.735 222.594 259.943 222.594C260.26 222.594 260.507 222.498 260.685 222.307C260.862 222.113 260.951 221.83 260.951 221.456C260.951 221.197 260.912 220.993 260.835 220.844C260.758 220.695 260.653 220.588 260.52 220.525C260.389 220.46 260.244 220.427 260.083 220.427C259.94 220.427 259.814 220.441 259.705 220.469C259.595 220.495 259.47 220.535 259.33 220.588H258.858V218.18H261.409ZM261.22 229.567C261.22 229.147 261.176 228.811 261.087 228.559C260.998 228.307 260.882 228.118 260.737 227.992C260.592 227.866 260.434 227.782 260.261 227.74C260.091 227.698 259.923 227.677 259.757 227.677H259.19V231.513H259.764C259.937 231.513 260.108 231.487 260.279 231.433C260.451 231.377 260.609 231.279 260.751 231.139C260.893 230.997 261.007 230.799 261.091 230.547C261.177 230.293 261.22 229.966 261.22 229.567ZM261.868 229.567C261.868 229.969 261.824 230.312 261.738 230.596C261.654 230.879 261.539 231.112 261.392 231.296C261.245 231.481 261.077 231.624 260.888 231.727C260.701 231.827 260.504 231.898 260.296 231.94C260.091 231.98 259.889 232 259.691 232H258.585V227.18H259.614C259.896 227.18 260.17 227.212 260.436 227.275C260.704 227.338 260.946 227.455 261.161 227.625C261.378 227.793 261.549 228.033 261.675 228.346C261.803 228.659 261.868 229.066 261.868 229.567ZM259.918 236.103L260.408 236.31L259.127 239.358H261.7V239.827H258.504V239.4L259.918 236.103ZM261.077 237.99V241H260.51L260.506 239.47L260.587 237.99H261.077ZM260.615 245.18V249.86H260.027V245.817L258.921 246.489L258.665 246.069L260.1 245.18H260.615ZM261.623 249.52V250H258.84V249.52H261.623Z" fill="url(#paint3_linear_29_28)"/>
<path d="M205.2 209.207C206.241 209.207 207.027 209.636 207.559 210.495C208.091 211.354 208.357 212.581 208.357 214.177C208.357 215.778 208.091 217.01 207.559 217.873C207.027 218.732 206.241 219.161 205.2 219.161C204.164 219.161 203.378 218.732 202.841 217.873C202.309 217.01 202.043 215.778 202.043 214.177C202.043 212.581 202.309 211.354 202.841 210.495C203.378 209.636 204.164 209.207 205.2 209.207ZM205.2 210.152C204.607 210.152 204.141 210.467 203.8 211.097C203.459 211.722 203.289 212.749 203.289 214.177C203.289 214.9 203.326 215.519 203.401 216.032C203.476 216.545 203.59 216.963 203.744 217.285C203.903 217.602 204.101 217.836 204.339 217.985C204.582 218.134 204.869 218.209 205.2 218.209C205.601 218.209 205.944 218.071 206.229 217.796C206.518 217.521 206.738 217.087 206.887 216.494C207.041 215.897 207.118 215.124 207.118 214.177C207.118 213.216 207.05 212.439 206.915 211.846C206.784 211.253 206.577 210.824 206.292 210.558C206.012 210.287 205.648 210.152 205.2 210.152ZM206.621 210.495L206.929 211.524L203.863 217.733L203.429 216.914L206.621 210.495ZM207.069 234.543H203.254L202.484 237H201.287L204.423 227.361H205.977L209.113 237H207.839L207.069 234.543ZM203.569 233.535H206.754L205.172 228.383L203.569 233.535ZM204.759 245.207C205.366 245.207 205.888 245.317 206.327 245.536C206.77 245.751 207.113 246.042 207.356 246.411C207.599 246.775 207.72 247.176 207.72 247.615C207.72 248.002 207.634 248.355 207.461 248.672C207.288 248.989 207.06 249.251 206.775 249.456C206.49 249.661 206.178 249.797 205.837 249.862C206.215 249.89 206.57 249.997 206.901 250.184C207.232 250.366 207.503 250.627 207.713 250.968C207.923 251.304 208.028 251.722 208.028 252.221C208.028 252.776 207.888 253.278 207.608 253.726C207.328 254.169 206.936 254.519 206.432 254.776C205.933 255.033 205.349 255.161 204.682 255.161C204.145 255.161 203.609 255.058 203.072 254.853C202.54 254.648 202.09 254.321 201.721 253.873L202.512 253.229C202.787 253.551 203.114 253.791 203.492 253.95C203.875 254.109 204.262 254.188 204.654 254.188C205.326 254.188 205.851 254.013 206.229 253.663C206.607 253.308 206.796 252.828 206.796 252.221C206.796 251.764 206.707 251.402 206.53 251.136C206.357 250.87 206.122 250.681 205.823 250.569C205.524 250.452 205.184 250.394 204.801 250.394H203.989L204.136 249.463H204.703C205.016 249.463 205.31 249.405 205.585 249.288C205.865 249.167 206.094 248.98 206.271 248.728C206.448 248.476 206.537 248.161 206.537 247.783C206.537 247.251 206.36 246.845 206.005 246.565C205.65 246.285 205.221 246.145 204.717 246.145C204.297 246.145 203.931 246.22 203.618 246.369C203.305 246.514 202.99 246.735 202.673 247.034L202.022 246.313C202.433 245.926 202.869 245.646 203.331 245.473C203.793 245.296 204.269 245.207 204.759 245.207ZM206.229 263.361V272.72H205.053V264.635L202.841 265.979L202.33 265.139L205.2 263.361H206.229ZM208.245 272.041V273H202.68V272.041H208.245ZM207.818 281.361L207.643 282.299H203.835V285.337C204.129 285.178 204.407 285.071 204.668 285.015C204.934 284.954 205.212 284.924 205.501 284.924C206.024 284.924 206.483 285.043 206.88 285.281C207.277 285.514 207.585 285.857 207.804 286.31C208.023 286.763 208.133 287.309 208.133 287.948C208.133 288.587 207.998 289.15 207.727 289.635C207.461 290.12 207.085 290.496 206.6 290.762C206.115 291.028 205.538 291.161 204.871 291.161C204.292 291.161 203.774 291.058 203.317 290.853C202.864 290.648 202.451 290.363 202.078 289.999L202.806 289.299C203.1 289.598 203.415 289.822 203.751 289.971C204.092 290.116 204.47 290.188 204.885 290.188C205.52 290.188 206.014 289.997 206.369 289.614C206.724 289.227 206.901 288.66 206.901 287.913C206.901 287.395 206.824 286.987 206.67 286.688C206.516 286.389 206.306 286.177 206.04 286.051C205.779 285.92 205.487 285.855 205.165 285.855C204.88 285.855 204.628 285.883 204.409 285.939C204.19 285.99 203.94 286.07 203.66 286.177H202.715V281.361H207.818ZM207.44 304.135C207.44 303.295 207.351 302.623 207.174 302.119C206.997 301.615 206.763 301.237 206.474 300.985C206.185 300.733 205.867 300.565 205.522 300.481C205.181 300.397 204.845 300.355 204.514 300.355H203.38V308.027H204.528C204.873 308.027 205.216 307.973 205.557 307.866C205.902 307.754 206.217 307.558 206.502 307.278C206.787 306.993 207.013 306.599 207.181 306.095C207.354 305.586 207.44 304.933 207.44 304.135ZM208.735 304.135C208.735 304.938 208.649 305.624 208.476 306.193C208.308 306.758 208.077 307.224 207.783 307.593C207.489 307.962 207.153 308.249 206.775 308.454C206.402 308.655 206.007 308.797 205.592 308.881C205.181 308.96 204.778 309 204.381 309H202.169V299.361H204.227C204.792 299.361 205.34 299.424 205.872 299.55C206.409 299.676 206.892 299.909 207.321 300.25C207.755 300.586 208.098 301.067 208.35 301.692C208.607 302.317 208.735 303.132 208.735 304.135ZM208.525 320.063C208.525 320.544 208.42 320.964 208.21 321.323C208.005 321.682 207.725 321.979 207.37 322.212C207.015 322.445 206.616 322.616 206.173 322.723L209.029 327H207.573L204.941 322.863H203.639V327H202.421V317.361H204.899C206.089 317.361 206.99 317.59 207.601 318.047C208.217 318.5 208.525 319.172 208.525 320.063ZM207.223 320.063C207.223 319.442 207.046 318.999 206.691 318.733C206.336 318.462 205.786 318.327 205.039 318.327H203.639V321.911H205.039C205.73 321.911 206.266 321.771 206.649 321.491C207.032 321.206 207.223 320.73 207.223 320.063ZM205.389 345.161C204.628 345.161 203.966 344.977 203.401 344.608C202.841 344.239 202.407 343.686 202.099 342.949C201.791 342.212 201.637 341.288 201.637 340.177C201.637 339.346 201.747 338.621 201.966 338C202.19 337.379 202.491 336.861 202.869 336.446C203.252 336.031 203.683 335.72 204.164 335.515C204.649 335.31 205.151 335.207 205.669 335.207C206.299 335.207 206.822 335.298 207.237 335.48C207.652 335.657 208.049 335.919 208.427 336.264L207.692 337.027C207.398 336.752 207.088 336.549 206.761 336.418C206.439 336.287 206.077 336.222 205.676 336.222C205.326 336.222 204.988 336.29 204.661 336.425C204.334 336.56 204.04 336.782 203.779 337.09C203.522 337.393 203.317 337.797 203.163 338.301C203.014 338.805 202.939 339.43 202.939 340.177C202.939 341.106 203.035 341.862 203.226 342.445C203.422 343.028 203.709 343.458 204.087 343.733C204.47 344.004 204.941 344.139 205.501 344.139C205.837 344.139 206.154 344.099 206.453 344.02C206.756 343.941 207.05 343.826 207.335 343.677V340.737H205.438L205.291 339.729H208.539V344.321C208.105 344.554 207.643 344.753 207.153 344.916C206.663 345.079 206.075 345.161 205.389 345.161Z" fill="url(#paint4_linear_29_28)"/>
<g filter="url(#filter1_f_29_28)">
<path d="M754 230.862C754 250.116 738.392 265.725 719.138 265.725C699.884 265.725 640 273.823 640 254.569C640 235.315 659.443 196 678.697 196C697.951 196 754 211.608 754 230.862Z" fill="#C92A2A"/>
</g>
<path d="M626.2 162.207C627.241 162.207 628.027 162.636 628.559 163.495C629.091 164.354 629.357 165.581 629.357 167.177C629.357 168.778 629.091 170.01 628.559 170.873C628.027 171.732 627.241 172.161 626.2 172.161C625.164 172.161 624.378 171.732 623.841 170.873C623.309 170.01 623.043 168.778 623.043 167.177C623.043 165.581 623.309 164.354 623.841 163.495C624.378 162.636 625.164 162.207 626.2 162.207ZM626.2 163.152C625.607 163.152 625.141 163.467 624.8 164.097C624.459 164.722 624.289 165.749 624.289 167.177C624.289 167.9 624.326 168.519 624.401 169.032C624.476 169.545 624.59 169.963 624.744 170.285C624.903 170.602 625.101 170.836 625.339 170.985C625.582 171.134 625.869 171.209 626.2 171.209C626.601 171.209 626.944 171.071 627.229 170.796C627.518 170.521 627.738 170.087 627.887 169.494C628.041 168.897 628.118 168.124 628.118 167.177C628.118 166.216 628.05 165.439 627.915 164.846C627.784 164.253 627.577 163.824 627.292 163.558C627.012 163.287 626.648 163.152 626.2 163.152ZM627.621 163.495L627.929 164.524L624.863 170.733L624.429 169.914L627.621 163.495ZM628.069 187.543H624.254L623.484 190H622.287L625.423 180.361H626.977L630.113 190H628.839L628.069 187.543ZM624.569 186.535H627.754L626.172 181.383L624.569 186.535ZM625.759 198.207C626.366 198.207 626.888 198.317 627.327 198.536C627.77 198.751 628.113 199.042 628.356 199.411C628.599 199.775 628.72 200.176 628.72 200.615C628.72 201.002 628.634 201.355 628.461 201.672C628.288 201.989 628.06 202.251 627.775 202.456C627.49 202.661 627.178 202.797 626.837 202.862C627.215 202.89 627.57 202.997 627.901 203.184C628.232 203.366 628.503 203.627 628.713 203.968C628.923 204.304 629.028 204.722 629.028 205.221C629.028 205.776 628.888 206.278 628.608 206.726C628.328 207.169 627.936 207.519 627.432 207.776C626.933 208.033 626.349 208.161 625.682 208.161C625.145 208.161 624.609 208.058 624.072 207.853C623.54 207.648 623.09 207.321 622.721 206.873L623.512 206.229C623.787 206.551 624.114 206.791 624.492 206.95C624.875 207.109 625.262 207.188 625.654 207.188C626.326 207.188 626.851 207.013 627.229 206.663C627.607 206.308 627.796 205.828 627.796 205.221C627.796 204.764 627.707 204.402 627.53 204.136C627.357 203.87 627.122 203.681 626.823 203.569C626.524 203.452 626.184 203.394 625.801 203.394H624.989L625.136 202.463H625.703C626.016 202.463 626.31 202.405 626.585 202.288C626.865 202.167 627.094 201.98 627.271 201.728C627.448 201.476 627.537 201.161 627.537 200.783C627.537 200.251 627.36 199.845 627.005 199.565C626.65 199.285 626.221 199.145 625.717 199.145C625.297 199.145 624.931 199.22 624.618 199.369C624.305 199.514 623.99 199.735 623.673 200.034L623.022 199.313C623.433 198.926 623.869 198.646 624.331 198.473C624.793 198.296 625.269 198.207 625.759 198.207ZM627.229 216.361V225.72H626.053V217.635L623.841 218.979L623.33 218.139L626.2 216.361H627.229ZM629.245 225.041V226H623.68V225.041H629.245ZM628.818 234.361L628.643 235.299H624.835V238.337C625.129 238.178 625.407 238.071 625.668 238.015C625.934 237.954 626.212 237.924 626.501 237.924C627.024 237.924 627.483 238.043 627.88 238.281C628.277 238.514 628.585 238.857 628.804 239.31C629.023 239.763 629.133 240.309 629.133 240.948C629.133 241.587 628.998 242.15 628.727 242.635C628.461 243.12 628.085 243.496 627.6 243.762C627.115 244.028 626.538 244.161 625.871 244.161C625.292 244.161 624.774 244.058 624.317 243.853C623.864 243.648 623.451 243.363 623.078 242.999L623.806 242.299C624.1 242.598 624.415 242.822 624.751 242.971C625.092 243.116 625.47 243.188 625.885 243.188C626.52 243.188 627.014 242.997 627.369 242.614C627.724 242.227 627.901 241.66 627.901 240.913C627.901 240.395 627.824 239.987 627.67 239.688C627.516 239.389 627.306 239.177 627.04 239.051C626.779 238.92 626.487 238.855 626.165 238.855C625.88 238.855 625.628 238.883 625.409 238.939C625.19 238.99 624.94 239.07 624.66 239.177H623.715V234.361H628.818ZM628.44 257.135C628.44 256.295 628.351 255.623 628.174 255.119C627.997 254.615 627.763 254.237 627.474 253.985C627.185 253.733 626.867 253.565 626.522 253.481C626.181 253.397 625.845 253.355 625.514 253.355H624.38V261.027H625.528C625.873 261.027 626.216 260.973 626.557 260.866C626.902 260.754 627.217 260.558 627.502 260.278C627.787 259.993 628.013 259.599 628.181 259.095C628.354 258.586 628.44 257.933 628.44 257.135ZM629.735 257.135C629.735 257.938 629.649 258.624 629.476 259.193C629.308 259.758 629.077 260.224 628.783 260.593C628.489 260.962 628.153 261.249 627.775 261.454C627.402 261.655 627.007 261.797 626.592 261.881C626.181 261.96 625.778 262 625.381 262H623.169V252.361H625.227C625.792 252.361 626.34 252.424 626.872 252.55C627.409 252.676 627.892 252.909 628.321 253.25C628.755 253.586 629.098 254.067 629.35 254.692C629.607 255.317 629.735 256.132 629.735 257.135ZM629.525 273.063C629.525 273.544 629.42 273.964 629.21 274.323C629.005 274.682 628.725 274.979 628.37 275.212C628.015 275.445 627.616 275.616 627.173 275.723L630.029 280H628.573L625.941 275.863H624.639V280H623.421V270.361H625.899C627.089 270.361 627.99 270.59 628.601 271.047C629.217 271.5 629.525 272.172 629.525 273.063ZM628.223 273.063C628.223 272.442 628.046 271.999 627.691 271.733C627.336 271.462 626.786 271.327 626.039 271.327H624.639V274.911H626.039C626.73 274.911 627.266 274.771 627.649 274.491C628.032 274.206 628.223 273.73 628.223 273.063ZM626.389 298.161C625.628 298.161 624.966 297.977 624.401 297.608C623.841 297.239 623.407 296.686 623.099 295.949C622.791 295.212 622.637 294.288 622.637 293.177C622.637 292.346 622.747 291.621 622.966 291C623.19 290.379 623.491 289.861 623.869 289.446C624.252 289.031 624.683 288.72 625.164 288.515C625.649 288.31 626.151 288.207 626.669 288.207C627.299 288.207 627.822 288.298 628.237 288.48C628.652 288.657 629.049 288.919 629.427 289.264L628.692 290.027C628.398 289.752 628.088 289.549 627.761 289.418C627.439 289.287 627.077 289.222 626.676 289.222C626.326 289.222 625.988 289.29 625.661 289.425C625.334 289.56 625.04 289.782 624.779 290.09C624.522 290.393 624.317 290.797 624.163 291.301C624.014 291.805 623.939 292.43 623.939 293.177C623.939 294.106 624.035 294.862 624.226 295.445C624.422 296.028 624.709 296.458 625.087 296.733C625.47 297.004 625.941 297.139 626.501 297.139C626.837 297.139 627.154 297.099 627.453 297.02C627.756 296.941 628.05 296.826 628.335 296.677V293.737H626.438L626.291 292.729H629.539V297.321C629.105 297.554 628.643 297.753 628.153 297.916C627.663 298.079 627.075 298.161 626.389 298.161Z" fill="url(#paint5_linear_29_28)"/>
<path d="M673.1 153.103C673.62 153.103 674.014 153.318 674.28 153.747C674.546 154.177 674.678 154.79 674.678 155.588C674.678 156.389 674.546 157.005 674.28 157.436C674.014 157.866 673.62 158.081 673.1 158.081C672.582 158.081 672.189 157.866 671.921 157.436C671.655 157.005 671.522 156.389 671.522 155.588C671.522 154.79 671.655 154.177 671.921 153.747C672.189 153.318 672.582 153.103 673.1 153.103ZM673.1 153.576C672.804 153.576 672.57 153.733 672.4 154.048C672.23 154.361 672.145 154.874 672.145 155.588C672.145 155.95 672.163 156.259 672.201 156.516C672.238 156.773 672.295 156.981 672.372 157.142C672.451 157.301 672.551 157.418 672.67 157.492C672.791 157.567 672.934 157.604 673.1 157.604C673.301 157.604 673.472 157.536 673.615 157.398C673.759 157.26 673.869 157.043 673.944 156.747C674.021 156.448 674.059 156.062 674.059 155.588C674.059 155.108 674.025 154.719 673.958 154.423C673.892 154.127 673.788 153.912 673.646 153.779C673.506 153.644 673.324 153.576 673.1 153.576ZM673.811 153.747L673.965 154.262L672.432 157.366L672.215 156.957L673.811 153.747ZM674.035 165.771H672.127L671.742 167H671.144L672.712 162.18H673.489L675.057 167H674.42L674.035 165.771ZM672.285 165.267H673.877L673.086 162.691L672.285 165.267ZM672.88 171.103C673.183 171.103 673.444 171.158 673.664 171.268C673.885 171.375 674.057 171.521 674.178 171.705C674.299 171.887 674.36 172.088 674.36 172.307C674.36 172.501 674.317 172.677 674.231 172.836C674.144 172.995 674.03 173.125 673.888 173.228C673.745 173.331 673.589 173.398 673.419 173.431C673.608 173.445 673.785 173.499 673.951 173.592C674.116 173.683 674.252 173.814 674.357 173.984C674.462 174.152 674.514 174.361 674.514 174.61C674.514 174.888 674.444 175.139 674.304 175.363C674.164 175.585 673.968 175.76 673.716 175.888C673.466 176.016 673.175 176.081 672.841 176.081C672.573 176.081 672.304 176.029 672.036 175.926C671.77 175.824 671.545 175.66 671.361 175.436L671.756 175.114C671.894 175.275 672.057 175.396 672.246 175.475C672.437 175.554 672.631 175.594 672.827 175.594C673.163 175.594 673.426 175.506 673.615 175.331C673.804 175.154 673.898 174.914 673.898 174.61C673.898 174.382 673.854 174.201 673.765 174.068C673.679 173.935 673.561 173.84 673.412 173.784C673.262 173.726 673.092 173.697 672.901 173.697H672.495L672.568 173.231H672.852C673.008 173.231 673.155 173.202 673.293 173.144C673.433 173.083 673.547 172.99 673.636 172.864C673.724 172.738 673.769 172.58 673.769 172.391C673.769 172.125 673.68 171.922 673.503 171.782C673.325 171.642 673.111 171.572 672.859 171.572C672.649 171.572 672.465 171.61 672.309 171.684C672.153 171.757 671.995 171.868 671.837 172.017L671.511 171.656C671.716 171.463 671.935 171.323 672.166 171.236C672.397 171.148 672.635 171.103 672.88 171.103ZM673.615 180.18V184.86H673.027V180.817L671.921 181.489L671.665 181.069L673.1 180.18H673.615ZM674.623 184.52V185H671.84V184.52H674.623ZM674.409 189.18L674.322 189.649H672.418V191.168C672.565 191.089 672.703 191.035 672.834 191.007C672.967 190.977 673.106 190.962 673.251 190.962C673.512 190.962 673.742 191.021 673.94 191.14C674.138 191.257 674.292 191.429 674.402 191.655C674.512 191.881 674.567 192.154 674.567 192.474C674.567 192.794 674.499 193.075 674.364 193.317C674.231 193.56 674.043 193.748 673.8 193.881C673.557 194.014 673.269 194.081 672.936 194.081C672.646 194.081 672.387 194.029 672.159 193.926C671.932 193.824 671.726 193.681 671.539 193.499L671.903 193.149C672.05 193.299 672.208 193.411 672.376 193.486C672.546 193.558 672.735 193.594 672.943 193.594C673.26 193.594 673.507 193.498 673.685 193.307C673.862 193.113 673.951 192.83 673.951 192.456C673.951 192.197 673.912 191.993 673.835 191.844C673.758 191.695 673.653 191.588 673.52 191.525C673.389 191.46 673.244 191.427 673.083 191.427C672.94 191.427 672.814 191.441 672.705 191.469C672.595 191.495 672.47 191.535 672.33 191.588H671.858V189.18H674.409ZM674.22 200.567C674.22 200.147 674.176 199.811 674.087 199.559C673.998 199.307 673.882 199.118 673.737 198.992C673.592 198.866 673.434 198.782 673.261 198.74C673.091 198.698 672.923 198.677 672.757 198.677H672.19V202.513H672.764C672.937 202.513 673.108 202.487 673.279 202.433C673.451 202.377 673.609 202.279 673.751 202.139C673.893 201.997 674.007 201.799 674.091 201.547C674.177 201.293 674.22 200.966 674.22 200.567ZM674.868 200.567C674.868 200.969 674.824 201.312 674.738 201.596C674.654 201.879 674.539 202.112 674.392 202.296C674.245 202.481 674.077 202.624 673.888 202.727C673.701 202.827 673.504 202.898 673.296 202.94C673.091 202.98 672.889 203 672.691 203H671.585V198.18H672.614C672.896 198.18 673.17 198.212 673.436 198.275C673.704 198.338 673.946 198.455 674.161 198.625C674.378 198.793 674.549 199.033 674.675 199.346C674.803 199.659 674.868 200.066 674.868 200.567ZM672.918 207.103L673.408 207.31L672.127 210.358H674.7V210.827H671.504V210.4L672.918 207.103ZM674.077 208.99V212H673.51L673.506 210.47L673.587 208.99H674.077ZM673.615 216.18V220.86H673.027V216.817L671.921 217.489L671.665 217.069L673.1 216.18H673.615ZM674.623 220.52V221H671.84V220.52H674.623Z" fill="url(#paint6_linear_29_28)"/>
<path d="M690.1 257.103C690.62 257.103 691.014 257.318 691.28 257.747C691.546 258.177 691.678 258.79 691.678 259.588C691.678 260.389 691.546 261.005 691.28 261.436C691.014 261.866 690.62 262.081 690.1 262.081C689.582 262.081 689.189 261.866 688.921 261.436C688.655 261.005 688.522 260.389 688.522 259.588C688.522 258.79 688.655 258.177 688.921 257.747C689.189 257.318 689.582 257.103 690.1 257.103ZM690.1 257.576C689.804 257.576 689.57 257.733 689.4 258.048C689.23 258.361 689.145 258.874 689.145 259.588C689.145 259.95 689.163 260.259 689.201 260.516C689.238 260.773 689.295 260.981 689.372 261.142C689.451 261.301 689.551 261.418 689.67 261.492C689.791 261.567 689.934 261.604 690.1 261.604C690.301 261.604 690.472 261.536 690.615 261.398C690.759 261.26 690.869 261.043 690.944 260.747C691.021 260.448 691.059 260.062 691.059 259.588C691.059 259.108 691.025 258.719 690.958 258.423C690.892 258.127 690.788 257.912 690.646 257.779C690.506 257.644 690.324 257.576 690.1 257.576ZM690.811 257.747L690.965 258.262L689.432 261.366L689.215 260.957L690.811 257.747ZM691.035 269.771H689.127L688.742 271H688.144L689.712 266.18H690.489L692.057 271H691.42L691.035 269.771ZM689.285 269.267H690.877L690.086 266.691L689.285 269.267ZM689.88 275.103C690.183 275.103 690.444 275.158 690.664 275.268C690.885 275.375 691.057 275.521 691.178 275.705C691.299 275.887 691.36 276.088 691.36 276.307C691.36 276.501 691.317 276.677 691.231 276.836C691.144 276.995 691.03 277.125 690.888 277.228C690.745 277.331 690.589 277.398 690.419 277.431C690.608 277.445 690.785 277.499 690.951 277.592C691.116 277.683 691.252 277.814 691.357 277.984C691.462 278.152 691.514 278.361 691.514 278.61C691.514 278.888 691.444 279.139 691.304 279.363C691.164 279.585 690.968 279.76 690.716 279.888C690.466 280.016 690.175 280.081 689.841 280.081C689.573 280.081 689.304 280.029 689.036 279.926C688.77 279.824 688.545 279.66 688.361 279.436L688.756 279.114C688.894 279.275 689.057 279.396 689.246 279.475C689.437 279.554 689.631 279.594 689.827 279.594C690.163 279.594 690.426 279.506 690.615 279.331C690.804 279.154 690.898 278.914 690.898 278.61C690.898 278.382 690.854 278.201 690.765 278.068C690.679 277.935 690.561 277.84 690.412 277.784C690.262 277.726 690.092 277.697 689.901 277.697H689.495L689.568 277.231H689.852C690.008 277.231 690.155 277.202 690.293 277.144C690.433 277.083 690.547 276.99 690.636 276.864C690.724 276.738 690.769 276.58 690.769 276.391C690.769 276.125 690.68 275.922 690.503 275.782C690.325 275.642 690.111 275.572 689.859 275.572C689.649 275.572 689.465 275.61 689.309 275.684C689.153 275.757 688.995 275.868 688.837 276.017L688.511 275.656C688.716 275.463 688.935 275.323 689.166 275.236C689.397 275.148 689.635 275.103 689.88 275.103ZM690.615 284.18V288.86H690.027V284.817L688.921 285.489L688.665 285.069L690.1 284.18H690.615ZM691.623 288.52V289H688.84V288.52H691.623ZM691.409 293.18L691.322 293.649H689.418V295.168C689.565 295.089 689.703 295.035 689.834 295.007C689.967 294.977 690.106 294.962 690.251 294.962C690.512 294.962 690.742 295.021 690.94 295.14C691.138 295.257 691.292 295.429 691.402 295.655C691.512 295.881 691.567 296.154 691.567 296.474C691.567 296.794 691.499 297.075 691.364 297.317C691.231 297.56 691.043 297.748 690.8 297.881C690.557 298.014 690.269 298.081 689.936 298.081C689.646 298.081 689.387 298.029 689.159 297.926C688.932 297.824 688.726 297.681 688.539 297.499L688.903 297.149C689.05 297.299 689.208 297.411 689.376 297.486C689.546 297.558 689.735 297.594 689.943 297.594C690.26 297.594 690.507 297.498 690.685 297.307C690.862 297.113 690.951 296.83 690.951 296.456C690.951 296.197 690.912 295.993 690.835 295.844C690.758 295.695 690.653 295.588 690.52 295.525C690.389 295.46 690.244 295.427 690.083 295.427C689.94 295.427 689.814 295.441 689.705 295.469C689.595 295.495 689.47 295.535 689.33 295.588H688.858V293.18H691.409ZM691.22 304.567C691.22 304.147 691.176 303.811 691.087 303.559C690.998 303.307 690.882 303.118 690.737 302.992C690.592 302.866 690.434 302.782 690.261 302.74C690.091 302.698 689.923 302.677 689.757 302.677H689.19V306.513H689.764C689.937 306.513 690.108 306.487 690.279 306.433C690.451 306.377 690.609 306.279 690.751 306.139C690.893 305.997 691.007 305.799 691.091 305.547C691.177 305.293 691.22 304.966 691.22 304.567ZM691.868 304.567C691.868 304.969 691.824 305.312 691.738 305.596C691.654 305.879 691.539 306.112 691.392 306.296C691.245 306.481 691.077 306.624 690.888 306.727C690.701 306.827 690.504 306.898 690.296 306.94C690.091 306.98 689.889 307 689.691 307H688.585V302.18H689.614C689.896 302.18 690.17 302.212 690.436 302.275C690.704 302.338 690.946 302.455 691.161 302.625C691.378 302.793 691.549 303.033 691.675 303.346C691.803 303.659 691.868 304.066 691.868 304.567ZM689.918 311.103L690.408 311.31L689.127 314.358H691.7V314.827H688.504V314.4L689.918 311.103ZM691.077 312.99V316H690.51L690.506 314.47L690.587 312.99H691.077ZM690.615 320.18V324.86H690.027V320.817L688.921 321.489L688.665 321.069L690.1 320.18H690.615ZM691.623 324.52V325H688.84V324.52H691.623Z" fill="url(#paint7_linear_29_28)"/>
<path d="M711.1 189.103C711.62 189.103 712.014 189.318 712.28 189.747C712.546 190.177 712.678 190.79 712.678 191.588C712.678 192.389 712.546 193.005 712.28 193.436C712.014 193.866 711.62 194.081 711.1 194.081C710.582 194.081 710.189 193.866 709.921 193.436C709.655 193.005 709.522 192.389 709.522 191.588C709.522 190.79 709.655 190.177 709.921 189.747C710.189 189.318 710.582 189.103 711.1 189.103ZM711.1 189.576C710.804 189.576 710.57 189.733 710.4 190.048C710.23 190.361 710.145 190.874 710.145 191.588C710.145 191.95 710.163 192.259 710.201 192.516C710.238 192.773 710.295 192.981 710.372 193.142C710.451 193.301 710.551 193.418 710.67 193.492C710.791 193.567 710.934 193.604 711.1 193.604C711.301 193.604 711.472 193.536 711.615 193.398C711.759 193.26 711.869 193.043 711.944 192.747C712.021 192.448 712.059 192.062 712.059 191.588C712.059 191.108 712.025 190.719 711.958 190.423C711.892 190.127 711.788 189.912 711.646 189.779C711.506 189.644 711.324 189.576 711.1 189.576ZM711.811 189.747L711.965 190.262L710.432 193.366L710.215 192.957L711.811 189.747ZM712.035 201.771H710.127L709.742 203H709.144L710.712 198.18H711.489L713.057 203H712.42L712.035 201.771ZM710.285 201.267H711.877L711.086 198.691L710.285 201.267ZM710.88 207.103C711.183 207.103 711.444 207.158 711.664 207.268C711.885 207.375 712.057 207.521 712.178 207.705C712.299 207.887 712.36 208.088 712.36 208.307C712.36 208.501 712.317 208.677 712.231 208.836C712.144 208.995 712.03 209.125 711.888 209.228C711.745 209.331 711.589 209.398 711.419 209.431C711.608 209.445 711.785 209.499 711.951 209.592C712.116 209.683 712.252 209.814 712.357 209.984C712.462 210.152 712.514 210.361 712.514 210.61C712.514 210.888 712.444 211.139 712.304 211.363C712.164 211.585 711.968 211.76 711.716 211.888C711.466 212.016 711.175 212.081 710.841 212.081C710.573 212.081 710.304 212.029 710.036 211.926C709.77 211.824 709.545 211.66 709.361 211.436L709.756 211.114C709.894 211.275 710.057 211.396 710.246 211.475C710.437 211.554 710.631 211.594 710.827 211.594C711.163 211.594 711.426 211.506 711.615 211.331C711.804 211.154 711.898 210.914 711.898 210.61C711.898 210.382 711.854 210.201 711.765 210.068C711.679 209.935 711.561 209.84 711.412 209.784C711.262 209.726 711.092 209.697 710.901 209.697H710.495L710.568 209.231H710.852C711.008 209.231 711.155 209.202 711.293 209.144C711.433 209.083 711.547 208.99 711.636 208.864C711.724 208.738 711.769 208.58 711.769 208.391C711.769 208.125 711.68 207.922 711.503 207.782C711.325 207.642 711.111 207.572 710.859 207.572C710.649 207.572 710.465 207.61 710.309 207.684C710.153 207.757 709.995 207.868 709.837 208.017L709.511 207.656C709.716 207.463 709.935 207.323 710.166 207.236C710.397 207.148 710.635 207.103 710.88 207.103ZM711.615 216.18V220.86H711.027V216.817L709.921 217.489L709.665 217.069L711.1 216.18H711.615ZM712.623 220.52V221H709.84V220.52H712.623ZM712.409 225.18L712.322 225.649H710.418V227.168C710.565 227.089 710.703 227.035 710.834 227.007C710.967 226.977 711.106 226.962 711.251 226.962C711.512 226.962 711.742 227.021 711.94 227.14C712.138 227.257 712.292 227.429 712.402 227.655C712.512 227.881 712.567 228.154 712.567 228.474C712.567 228.794 712.499 229.075 712.364 229.317C712.231 229.56 712.043 229.748 711.8 229.881C711.557 230.014 711.269 230.081 710.936 230.081C710.646 230.081 710.387 230.029 710.159 229.926C709.932 229.824 709.726 229.681 709.539 229.499L709.903 229.149C710.05 229.299 710.208 229.411 710.376 229.486C710.546 229.558 710.735 229.594 710.943 229.594C711.26 229.594 711.507 229.498 711.685 229.307C711.862 229.113 711.951 228.83 711.951 228.456C711.951 228.197 711.912 227.993 711.835 227.844C711.758 227.695 711.653 227.588 711.52 227.525C711.389 227.46 711.244 227.427 711.083 227.427C710.94 227.427 710.814 227.441 710.705 227.469C710.595 227.495 710.47 227.535 710.33 227.588H709.858V225.18H712.409ZM712.22 236.567C712.22 236.147 712.176 235.811 712.087 235.559C711.998 235.307 711.882 235.118 711.737 234.992C711.592 234.866 711.434 234.782 711.261 234.74C711.091 234.698 710.923 234.677 710.757 234.677H710.19V238.513H710.764C710.937 238.513 711.108 238.487 711.279 238.433C711.451 238.377 711.609 238.279 711.751 238.139C711.893 237.997 712.007 237.799 712.091 237.547C712.177 237.293 712.22 236.966 712.22 236.567ZM712.868 236.567C712.868 236.969 712.824 237.312 712.738 237.596C712.654 237.879 712.539 238.112 712.392 238.296C712.245 238.481 712.077 238.624 711.888 238.727C711.701 238.827 711.504 238.898 711.296 238.94C711.091 238.98 710.889 239 710.691 239H709.585V234.18H710.614C710.896 234.18 711.17 234.212 711.436 234.275C711.704 234.338 711.946 234.455 712.161 234.625C712.378 234.793 712.549 235.033 712.675 235.346C712.803 235.659 712.868 236.066 712.868 236.567ZM710.918 243.103L711.408 243.31L710.127 246.358H712.7V246.827H709.504V246.4L710.918 243.103ZM712.077 244.99V248H711.51L711.506 246.47L711.587 244.99H712.077ZM711.615 252.18V256.86H711.027V252.817L709.921 253.489L709.665 253.069L711.1 252.18H711.615ZM712.623 256.52V257H709.84V256.52H712.623Z" fill="url(#paint8_linear_29_28)"/>
<path d="M656.2 216.207C657.241 216.207 658.027 216.636 658.559 217.495C659.091 218.354 659.357 219.581 659.357 221.177C659.357 222.778 659.091 224.01 658.559 224.873C658.027 225.732 657.241 226.161 656.2 226.161C655.164 226.161 654.378 225.732 653.841 224.873C653.309 224.01 653.043 222.778 653.043 221.177C653.043 219.581 653.309 218.354 653.841 217.495C654.378 216.636 655.164 216.207 656.2 216.207ZM656.2 217.152C655.607 217.152 655.141 217.467 654.8 218.097C654.459 218.722 654.289 219.749 654.289 221.177C654.289 221.9 654.326 222.519 654.401 223.032C654.476 223.545 654.59 223.963 654.744 224.285C654.903 224.602 655.101 224.836 655.339 224.985C655.582 225.134 655.869 225.209 656.2 225.209C656.601 225.209 656.944 225.071 657.229 224.796C657.518 224.521 657.738 224.087 657.887 223.494C658.041 222.897 658.118 222.124 658.118 221.177C658.118 220.216 658.05 219.439 657.915 218.846C657.784 218.253 657.577 217.824 657.292 217.558C657.012 217.287 656.648 217.152 656.2 217.152ZM657.621 217.495L657.929 218.524L654.863 224.733L654.429 223.914L657.621 217.495ZM658.069 241.543H654.254L653.484 244H652.287L655.423 234.361H656.977L660.113 244H658.839L658.069 241.543ZM654.569 240.535H657.754L656.172 235.383L654.569 240.535ZM655.759 252.207C656.366 252.207 656.888 252.317 657.327 252.536C657.77 252.751 658.113 253.042 658.356 253.411C658.599 253.775 658.72 254.176 658.72 254.615C658.72 255.002 658.634 255.355 658.461 255.672C658.288 255.989 658.06 256.251 657.775 256.456C657.49 256.661 657.178 256.797 656.837 256.862C657.215 256.89 657.57 256.997 657.901 257.184C658.232 257.366 658.503 257.627 658.713 257.968C658.923 258.304 659.028 258.722 659.028 259.221C659.028 259.776 658.888 260.278 658.608 260.726C658.328 261.169 657.936 261.519 657.432 261.776C656.933 262.033 656.349 262.161 655.682 262.161C655.145 262.161 654.609 262.058 654.072 261.853C653.54 261.648 653.09 261.321 652.721 260.873L653.512 260.229C653.787 260.551 654.114 260.791 654.492 260.95C654.875 261.109 655.262 261.188 655.654 261.188C656.326 261.188 656.851 261.013 657.229 260.663C657.607 260.308 657.796 259.828 657.796 259.221C657.796 258.764 657.707 258.402 657.53 258.136C657.357 257.87 657.122 257.681 656.823 257.569C656.524 257.452 656.184 257.394 655.801 257.394H654.989L655.136 256.463H655.703C656.016 256.463 656.31 256.405 656.585 256.288C656.865 256.167 657.094 255.98 657.271 255.728C657.448 255.476 657.537 255.161 657.537 254.783C657.537 254.251 657.36 253.845 657.005 253.565C656.65 253.285 656.221 253.145 655.717 253.145C655.297 253.145 654.931 253.22 654.618 253.369C654.305 253.514 653.99 253.735 653.673 254.034L653.022 253.313C653.433 252.926 653.869 252.646 654.331 252.473C654.793 252.296 655.269 252.207 655.759 252.207ZM657.229 270.361V279.72H656.053V271.635L653.841 272.979L653.33 272.139L656.2 270.361H657.229ZM659.245 279.041V280H653.68V279.041H659.245ZM658.818 288.361L658.643 289.299H654.835V292.337C655.129 292.178 655.407 292.071 655.668 292.015C655.934 291.954 656.212 291.924 656.501 291.924C657.024 291.924 657.483 292.043 657.88 292.281C658.277 292.514 658.585 292.857 658.804 293.31C659.023 293.763 659.133 294.309 659.133 294.948C659.133 295.587 658.998 296.15 658.727 296.635C658.461 297.12 658.085 297.496 657.6 297.762C657.115 298.028 656.538 298.161 655.871 298.161C655.292 298.161 654.774 298.058 654.317 297.853C653.864 297.648 653.451 297.363 653.078 296.999L653.806 296.299C654.1 296.598 654.415 296.822 654.751 296.971C655.092 297.116 655.47 297.188 655.885 297.188C656.52 297.188 657.014 296.997 657.369 296.614C657.724 296.227 657.901 295.66 657.901 294.913C657.901 294.395 657.824 293.987 657.67 293.688C657.516 293.389 657.306 293.177 657.04 293.051C656.779 292.92 656.487 292.855 656.165 292.855C655.88 292.855 655.628 292.883 655.409 292.939C655.19 292.99 654.94 293.07 654.66 293.177H653.715V288.361H658.818ZM658.44 311.135C658.44 310.295 658.351 309.623 658.174 309.119C657.997 308.615 657.763 308.237 657.474 307.985C657.185 307.733 656.867 307.565 656.522 307.481C656.181 307.397 655.845 307.355 655.514 307.355H654.38V315.027H655.528C655.873 315.027 656.216 314.973 656.557 314.866C656.902 314.754 657.217 314.558 657.502 314.278C657.787 313.993 658.013 313.599 658.181 313.095C658.354 312.586 658.44 311.933 658.44 311.135ZM659.735 311.135C659.735 311.938 659.649 312.624 659.476 313.193C659.308 313.758 659.077 314.224 658.783 314.593C658.489 314.962 658.153 315.249 657.775 315.454C657.402 315.655 657.007 315.797 656.592 315.881C656.181 315.96 655.778 316 655.381 316H653.169V306.361H655.227C655.792 306.361 656.34 306.424 656.872 306.55C657.409 306.676 657.892 306.909 658.321 307.25C658.755 307.586 659.098 308.067 659.35 308.692C659.607 309.317 659.735 310.132 659.735 311.135ZM659.525 327.063C659.525 327.544 659.42 327.964 659.21 328.323C659.005 328.682 658.725 328.979 658.37 329.212C658.015 329.445 657.616 329.616 657.173 329.723L660.029 334H658.573L655.941 329.863H654.639V334H653.421V324.361H655.899C657.089 324.361 657.99 324.59 658.601 325.047C659.217 325.5 659.525 326.172 659.525 327.063ZM658.223 327.063C658.223 326.442 658.046 325.999 657.691 325.733C657.336 325.462 656.786 325.327 656.039 325.327H654.639V328.911H656.039C656.73 328.911 657.266 328.771 657.649 328.491C658.032 328.206 658.223 327.73 658.223 327.063ZM656.389 352.161C655.628 352.161 654.966 351.977 654.401 351.608C653.841 351.239 653.407 350.686 653.099 349.949C652.791 349.212 652.637 348.288 652.637 347.177C652.637 346.346 652.747 345.621 652.966 345C653.19 344.379 653.491 343.861 653.869 343.446C654.252 343.031 654.683 342.72 655.164 342.515C655.649 342.31 656.151 342.207 656.669 342.207C657.299 342.207 657.822 342.298 658.237 342.48C658.652 342.657 659.049 342.919 659.427 343.264L658.692 344.027C658.398 343.752 658.088 343.549 657.761 343.418C657.439 343.287 657.077 343.222 656.676 343.222C656.326 343.222 655.988 343.29 655.661 343.425C655.334 343.56 655.04 343.782 654.779 344.09C654.522 344.393 654.317 344.797 654.163 345.301C654.014 345.805 653.939 346.43 653.939 347.177C653.939 348.106 654.035 348.862 654.226 349.445C654.422 350.028 654.709 350.458 655.087 350.733C655.47 351.004 655.941 351.139 656.501 351.139C656.837 351.139 657.154 351.099 657.453 351.02C657.756 350.941 658.05 350.826 658.335 350.677V347.737H656.438L656.291 346.729H659.539V351.321C659.105 351.554 658.643 351.753 658.153 351.916C657.663 352.079 657.075 352.161 656.389 352.161Z" fill="url(#paint9_linear_29_28)"/>
<defs>
<filter id="filter0_f_29_28" x="0.600006" y="0.600006" width="490.8" height="448.215" filterUnits="userSpaceOnUse" color-interpolation-filters="sRGB">
<feFlood flood-opacity="0" result="BackgroundImageFix"/>
<feBlend mode="normal" in="SourceGraphic" in2="BackgroundImageFix" result="shape"/>
<feGaussianBlur stdDeviation="94.2" result="effect1_foregroundBlur_29_28"/>
</filter>
<filter id="filter1_f_29_28" x="451.6" y="7.60001" width="490.8" height="448.215" filterUnits="userSpaceOnUse" color-interpolation-filters="sRGB">
<feFlood flood-opacity="0" result="BackgroundImageFix"/>
<feBlend mode="normal" in="SourceGraphic" in2="BackgroundImageFix" result="shape"/>
<feGaussianBlur stdDeviation="94.2" result="effect1_foregroundBlur_29_28"/>
</filter>
<linearGradient id="paint0_linear_29_28" x1="175.5" y1="151" x2="175.5" y2="295" gradientUnits="userSpaceOnUse">
<stop stop-color="#C92A2A"/>
<stop offset="1" stop-color="#980606" stop-opacity="0"/>
</linearGradient>
<linearGradient id="paint1_linear_29_28" x1="222.5" y1="144" x2="222.5" y2="216" gradientUnits="userSpaceOnUse">
<stop stop-color="#C92A2A"/>
<stop offset="1" stop-color="#980606" stop-opacity="0"/>
</linearGradient>
<linearGradient id="paint2_linear_29_28" x1="239.5" y1="248" x2="239.5" y2="320" gradientUnits="userSpaceOnUse">
<stop stop-color="#C92A2A"/>
<stop offset="1" stop-color="#C92A2A" stop-opacity="0"/>
</linearGradient>
<linearGradient id="paint3_linear_29_28" x1="260.5" y1="180" x2="260.5" y2="252" gradientUnits="userSpaceOnUse">
<stop stop-color="#C92A2A"/>
<stop offset="1" stop-color="#C92A2A" stop-opacity="0"/>
</linearGradient>
<linearGradient id="paint4_linear_29_28" x1="205.5" y1="205" x2="205.5" y2="349" gradientUnits="userSpaceOnUse">
<stop stop-color="#C92A2A"/>
<stop offset="1" stop-color="#980606" stop-opacity="0"/>
</linearGradient>
<linearGradient id="paint5_linear_29_28" x1="626.5" y1="158" x2="626.5" y2="302" gradientUnits="userSpaceOnUse">
<stop stop-color="#C92A2A"/>
<stop offset="1" stop-color="#980606" stop-opacity="0"/>
</linearGradient>
<linearGradient id="paint6_linear_29_28" x1="673.5" y1="151" x2="673.5" y2="223" gradientUnits="userSpaceOnUse">
<stop stop-color="#C92A2A"/>
<stop offset="1" stop-color="#980606" stop-opacity="0"/>
</linearGradient>
<linearGradient id="paint7_linear_29_28" x1="690.5" y1="255" x2="690.5" y2="327" gradientUnits="userSpaceOnUse">
<stop stop-color="#C92A2A"/>
<stop offset="1" stop-color="#C92A2A" stop-opacity="0"/>
</linearGradient>
<linearGradient id="paint8_linear_29_28" x1="711.5" y1="187" x2="711.5" y2="259" gradientUnits="userSpaceOnUse">
<stop stop-color="#C92A2A"/>
<stop offset="1" stop-color="#C92A2A" stop-opacity="0"/>
</linearGradient>
<linearGradient id="paint9_linear_29_28" x1="656.5" y1="212" x2="656.5" y2="356" gradientUnits="userSpaceOnUse">
<stop stop-color="#C92A2A"/>
<stop offset="1" stop-color="#980606" stop-opacity="0"/>
</linearGradient>
</defs>
</svg>
