<svg width="24" height="25" viewBox="0 0 24 25" fill="none" xmlns="http://www.w3.org/2000/svg">
<path d="M2 3.5H8C9.06087 3.5 10.0783 3.92143 10.8284 4.67157C11.5786 5.42172 12 6.43913 12 7.5V21.5C12 20.7044 11.6839 19.9413 11.1213 19.3787C10.5587 18.8161 9.79565 18.5 9 18.5H2V3.5Z" stroke="url(#paint0_linear_2_2)" stroke-width="2" stroke-linecap="round" stroke-linejoin="round"/>
<path d="M22 3.5H16C14.9391 3.5 13.9217 3.92143 13.1716 4.67157C12.4214 5.42172 12 6.43913 12 7.5V21.5C12 20.7044 12.3161 19.9413 12.8787 19.3787C13.4413 18.8161 14.2044 18.5 15 18.5H22V3.5Z" stroke="url(#paint1_linear_2_2)" stroke-width="2" stroke-linecap="round" stroke-linejoin="round"/>
<defs>
<linearGradient id="paint0_linear_2_2" x1="7" y1="3.5" x2="20" y2="19" gradientUnits="userSpaceOnUse">
<stop stop-color="#0D6C27"/>
<stop offset="1" stop-color="#0E481E"/>
</linearGradient>
<linearGradient id="paint1_linear_2_2" x1="17" y1="3.5" x2="17" y2="21.5" gradientUnits="userSpaceOnUse">
<stop stop-color="#1BBC48"/>
<stop offset="1" stop-color="#0A6423" stop-opacity="0"/>
</linearGradient>
</defs>
</svg>
