<svg width="544" height="458" viewBox="0 0 544 458" fill="none" xmlns="http://www.w3.org/2000/svg">
<g filter="url(#filter0_f_11_9)">
<path d="M355.014 228.138C355.014 249.753 332.284 267.276 304.245 267.276C276.206 267.276 189 276.367 189 254.752C189 233.136 217.314 189 245.353 189C273.392 189 355.014 206.523 355.014 228.138Z" fill="#A5EA13"/>
</g>
<path d="M219.2 185.065C220.241 185.065 221.027 185.495 221.559 186.353C222.091 187.212 222.357 188.439 222.357 190.035C222.357 191.636 222.091 192.868 221.559 193.731C221.027 194.59 220.241 195.019 219.2 195.019C218.164 195.019 217.378 194.59 216.841 193.731C216.309 192.868 216.043 191.636 216.043 190.035C216.043 188.439 216.309 187.212 216.841 186.353C217.378 185.495 218.164 185.065 219.2 185.065ZM219.2 186.01C218.607 186.01 218.141 186.325 217.8 186.955C217.459 187.581 217.289 188.607 217.289 190.035C217.289 190.759 217.326 191.377 217.401 191.89C217.476 192.404 217.59 192.821 217.744 193.143C217.903 193.461 218.101 193.694 218.339 193.843C218.582 193.993 218.869 194.067 219.2 194.067C219.601 194.067 219.944 193.93 220.229 193.654C220.518 193.379 220.738 192.945 220.887 192.352C221.041 191.755 221.118 190.983 221.118 190.035C221.118 189.074 221.05 188.297 220.915 187.704C220.784 187.112 220.577 186.682 220.292 186.416C220.012 186.146 219.648 186.01 219.2 186.01ZM220.621 186.353L220.929 187.382L217.863 193.591L217.429 192.772L220.621 186.353ZM221.069 210.401H217.254L216.484 212.858H215.287L218.423 203.219H219.977L223.113 212.858H221.839L221.069 210.401ZM217.569 209.393H220.754L219.172 204.241L217.569 209.393ZM218.759 221.065C219.366 221.065 219.888 221.175 220.327 221.394C220.77 221.609 221.113 221.901 221.356 222.269C221.599 222.633 221.72 223.035 221.72 223.473C221.72 223.861 221.634 224.213 221.461 224.53C221.288 224.848 221.06 225.109 220.775 225.314C220.49 225.52 220.178 225.655 219.837 225.72C220.215 225.748 220.57 225.856 220.901 226.042C221.232 226.224 221.503 226.486 221.713 226.826C221.923 227.162 222.028 227.58 222.028 228.079C222.028 228.635 221.888 229.136 221.608 229.584C221.328 230.028 220.936 230.378 220.432 230.634C219.933 230.891 219.349 231.019 218.682 231.019C218.145 231.019 217.609 230.917 217.072 230.711C216.54 230.506 216.09 230.179 215.721 229.731L216.512 229.087C216.787 229.409 217.114 229.65 217.492 229.808C217.875 229.967 218.262 230.046 218.654 230.046C219.326 230.046 219.851 229.871 220.229 229.521C220.607 229.167 220.796 228.686 220.796 228.079C220.796 227.622 220.707 227.26 220.53 226.994C220.357 226.728 220.122 226.539 219.823 226.427C219.524 226.311 219.184 226.252 218.801 226.252H217.989L218.136 225.321H218.703C219.016 225.321 219.31 225.263 219.585 225.146C219.865 225.025 220.094 224.838 220.271 224.586C220.448 224.334 220.537 224.019 220.537 223.641C220.537 223.109 220.36 222.703 220.005 222.423C219.65 222.143 219.221 222.003 218.717 222.003C218.297 222.003 217.931 222.078 217.618 222.227C217.305 222.372 216.99 222.594 216.673 222.892L216.022 222.171C216.433 221.784 216.869 221.504 217.331 221.331C217.793 221.154 218.269 221.065 218.759 221.065ZM220.229 239.219V248.578H219.053V240.493L216.841 241.837L216.33 240.997L219.2 239.219H220.229ZM222.245 247.899V248.858H216.68V247.899H222.245ZM221.818 257.219L221.643 258.157H217.835V261.195C218.129 261.037 218.407 260.929 218.668 260.873C218.934 260.813 219.212 260.782 219.501 260.782C220.024 260.782 220.483 260.901 220.88 261.139C221.277 261.373 221.585 261.716 221.804 262.168C222.023 262.621 222.133 263.167 222.133 263.806C222.133 264.446 221.998 265.008 221.727 265.493C221.461 265.979 221.085 266.354 220.6 266.62C220.115 266.886 219.538 267.019 218.871 267.019C218.292 267.019 217.774 266.917 217.317 266.711C216.864 266.506 216.451 266.221 216.078 265.857L216.806 265.157C217.1 265.456 217.415 265.68 217.751 265.829C218.092 265.974 218.47 266.046 218.885 266.046C219.52 266.046 220.014 265.855 220.369 265.472C220.724 265.085 220.901 264.518 220.901 263.771C220.901 263.253 220.824 262.845 220.67 262.546C220.516 262.248 220.306 262.035 220.04 261.909C219.779 261.779 219.487 261.713 219.165 261.713C218.88 261.713 218.628 261.741 218.409 261.797C218.19 261.849 217.94 261.928 217.66 262.035H216.715V257.219H221.818ZM221.44 279.993C221.44 279.153 221.351 278.481 221.174 277.977C220.997 277.473 220.763 277.095 220.474 276.843C220.185 276.591 219.867 276.423 219.522 276.339C219.181 276.255 218.845 276.213 218.514 276.213H217.38V283.885H218.528C218.873 283.885 219.216 283.832 219.557 283.724C219.902 283.612 220.217 283.416 220.502 283.136C220.787 282.852 221.013 282.457 221.181 281.953C221.354 281.445 221.44 280.791 221.44 279.993ZM222.735 279.993C222.735 280.796 222.649 281.482 222.476 282.051C222.308 282.616 222.077 283.083 221.783 283.451C221.489 283.82 221.153 284.107 220.775 284.312C220.402 284.513 220.007 284.655 219.592 284.739C219.181 284.819 218.778 284.858 218.381 284.858H216.169V275.219H218.227C218.792 275.219 219.34 275.282 219.872 275.408C220.409 275.534 220.892 275.768 221.321 276.108C221.755 276.444 222.098 276.925 222.35 277.55C222.607 278.176 222.735 278.99 222.735 279.993ZM222.525 295.921C222.525 296.402 222.42 296.822 222.21 297.181C222.005 297.541 221.725 297.837 221.37 298.07C221.015 298.304 220.616 298.474 220.173 298.581L223.029 302.858H221.573L218.941 298.721H217.639V302.858H216.421V293.219H218.899C220.089 293.219 220.99 293.448 221.601 293.905C222.217 294.358 222.525 295.03 222.525 295.921ZM221.223 295.921C221.223 295.301 221.046 294.857 220.691 294.591C220.336 294.321 219.786 294.185 219.039 294.185H217.639V297.769H219.039C219.73 297.769 220.266 297.629 220.649 297.349C221.032 297.065 221.223 296.589 221.223 295.921ZM219.389 321.019C218.628 321.019 217.966 320.835 217.401 320.466C216.841 320.098 216.407 319.545 216.099 318.807C215.791 318.07 215.637 317.146 215.637 316.035C215.637 315.205 215.747 314.479 215.966 313.858C216.19 313.238 216.491 312.72 216.869 312.304C217.252 311.889 217.683 311.579 218.164 311.373C218.649 311.168 219.151 311.065 219.669 311.065C220.299 311.065 220.822 311.156 221.237 311.338C221.652 311.516 222.049 311.777 222.427 312.122L221.692 312.885C221.398 312.61 221.088 312.407 220.761 312.276C220.439 312.146 220.077 312.08 219.676 312.08C219.326 312.08 218.988 312.148 218.661 312.283C218.334 312.419 218.04 312.64 217.779 312.948C217.522 313.252 217.317 313.655 217.163 314.159C217.014 314.663 216.939 315.289 216.939 316.035C216.939 316.964 217.035 317.72 217.226 318.303C217.422 318.887 217.709 319.316 218.087 319.591C218.47 319.862 218.941 319.997 219.501 319.997C219.837 319.997 220.154 319.958 220.453 319.878C220.756 319.799 221.05 319.685 221.335 319.535V316.595H219.438L219.291 315.587H222.539V320.179C222.105 320.413 221.643 320.611 221.153 320.774C220.663 320.938 220.075 321.019 219.389 321.019Z" fill="url(#paint0_linear_11_9)"/>
<path d="M288.457 175.103C288.977 175.103 289.37 175.318 289.636 175.747C289.902 176.177 290.035 176.79 290.035 177.588C290.035 178.389 289.902 179.005 289.636 179.436C289.37 179.866 288.977 180.081 288.457 180.081C287.939 180.081 287.546 179.866 287.277 179.436C287.011 179.005 286.878 178.389 286.878 177.588C286.878 176.79 287.011 176.177 287.277 175.747C287.546 175.318 287.939 175.103 288.457 175.103ZM288.457 175.576C288.16 175.576 287.927 175.733 287.757 176.048C287.586 176.361 287.501 176.874 287.501 177.588C287.501 177.95 287.52 178.259 287.557 178.516C287.595 178.773 287.652 178.981 287.729 179.142C287.808 179.301 287.907 179.418 288.026 179.492C288.148 179.567 288.291 179.604 288.457 179.604C288.657 179.604 288.829 179.536 288.971 179.398C289.116 179.26 289.226 179.043 289.3 178.747C289.377 178.448 289.416 178.062 289.416 177.588C289.416 177.108 289.382 176.719 289.314 176.423C289.249 176.127 289.145 175.912 289.003 175.779C288.863 175.644 288.681 175.576 288.457 175.576ZM289.167 175.747L289.321 176.262L287.788 179.366L287.571 178.957L289.167 175.747ZM289.391 187.771H287.484L287.099 189H286.5L288.068 184.18H288.845L290.413 189H289.776L289.391 187.771ZM287.641 187.267H289.234L288.443 184.691L287.641 187.267ZM288.236 193.103C288.54 193.103 288.801 193.158 289.02 193.268C289.242 193.375 289.413 193.521 289.535 193.705C289.656 193.887 289.717 194.088 289.717 194.307C289.717 194.501 289.674 194.677 289.587 194.836C289.501 194.995 289.387 195.125 289.244 195.228C289.102 195.331 288.946 195.398 288.775 195.431C288.964 195.445 289.142 195.499 289.307 195.592C289.473 195.683 289.608 195.814 289.713 195.984C289.818 196.152 289.871 196.361 289.871 196.61C289.871 196.888 289.801 197.139 289.661 197.363C289.521 197.585 289.325 197.76 289.073 197.888C288.823 198.016 288.531 198.081 288.198 198.081C287.929 198.081 287.661 198.029 287.393 197.926C287.127 197.824 286.902 197.66 286.717 197.436L287.113 197.114C287.25 197.275 287.414 197.396 287.603 197.475C287.794 197.554 287.988 197.594 288.184 197.594C288.52 197.594 288.782 197.506 288.971 197.331C289.16 197.154 289.255 196.914 289.255 196.61C289.255 196.382 289.21 196.201 289.122 196.068C289.035 195.935 288.918 195.84 288.768 195.784C288.619 195.726 288.449 195.697 288.257 195.697H287.851L287.925 195.231H288.208C288.365 195.231 288.512 195.202 288.649 195.144C288.789 195.083 288.904 194.99 288.992 194.864C289.081 194.738 289.125 194.58 289.125 194.391C289.125 194.125 289.037 193.922 288.859 193.782C288.682 193.642 288.467 193.572 288.215 193.572C288.005 193.572 287.822 193.61 287.666 193.684C287.509 193.757 287.352 193.868 287.193 194.017L286.868 193.656C287.073 193.463 287.291 193.323 287.522 193.236C287.753 193.148 287.991 193.103 288.236 193.103ZM288.971 202.18V206.86H288.383V202.817L287.277 203.489L287.022 203.069L288.457 202.18H288.971ZM289.979 206.52V207H287.197V206.52H289.979ZM289.766 211.18L289.678 211.649H287.774V213.168C287.921 213.089 288.06 213.035 288.191 213.007C288.324 212.977 288.463 212.962 288.607 212.962C288.869 212.962 289.098 213.021 289.297 213.14C289.495 213.257 289.649 213.429 289.759 213.655C289.868 213.881 289.923 214.154 289.923 214.474C289.923 214.794 289.856 215.075 289.72 215.317C289.587 215.56 289.399 215.748 289.157 215.881C288.914 216.014 288.626 216.081 288.292 216.081C288.003 216.081 287.744 216.029 287.515 215.926C287.289 215.824 287.082 215.681 286.896 215.499L287.26 215.149C287.407 215.299 287.564 215.411 287.732 215.486C287.903 215.558 288.092 215.594 288.299 215.594C288.617 215.594 288.864 215.498 289.041 215.307C289.219 215.113 289.307 214.83 289.307 214.456C289.307 214.197 289.269 213.993 289.192 213.844C289.115 213.695 289.01 213.588 288.877 213.525C288.746 213.46 288.6 213.427 288.439 213.427C288.297 213.427 288.171 213.441 288.061 213.469C287.952 213.495 287.827 213.535 287.687 213.588H287.214V211.18H289.766ZM289.577 222.567C289.577 222.147 289.532 221.811 289.444 221.559C289.355 221.307 289.238 221.118 289.094 220.992C288.949 220.866 288.79 220.782 288.618 220.74C288.447 220.698 288.279 220.677 288.114 220.677H287.547V224.513H288.121C288.293 224.513 288.465 224.487 288.635 224.433C288.808 224.377 288.965 224.279 289.108 224.139C289.25 223.997 289.363 223.799 289.447 223.547C289.534 223.293 289.577 222.966 289.577 222.567ZM290.224 222.567C290.224 222.969 290.181 223.312 290.095 223.596C290.011 223.879 289.895 224.112 289.748 224.296C289.601 224.481 289.433 224.624 289.244 224.727C289.058 224.827 288.86 224.898 288.653 224.94C288.447 224.98 288.246 225 288.047 225H286.941V220.18H287.97C288.253 220.18 288.527 220.212 288.793 220.275C289.061 220.338 289.303 220.455 289.517 220.625C289.734 220.793 289.906 221.033 290.032 221.346C290.16 221.659 290.224 222.066 290.224 222.567ZM288.275 229.103L288.765 229.31L287.484 232.358H290.056V232.827H286.861V232.4L288.275 229.103ZM289.433 230.99V234H288.866L288.863 232.47L288.943 230.99H289.433ZM288.971 238.18V242.86H288.383V238.817L287.277 239.489L287.022 239.069L288.457 238.18H288.971ZM289.979 242.52V243H287.197V242.52H289.979Z" fill="url(#paint1_linear_11_9)"/>
<path d="M313.213 291.858C313.734 291.858 314.127 292.073 314.393 292.502C314.659 292.932 314.792 293.545 314.792 294.343C314.792 295.144 314.659 295.76 314.393 296.191C314.127 296.621 313.734 296.835 313.213 296.835C312.695 296.835 312.302 296.621 312.034 296.191C311.768 295.76 311.635 295.144 311.635 294.343C311.635 293.545 311.768 292.932 312.034 292.502C312.302 292.073 312.695 291.858 313.213 291.858ZM313.213 292.331C312.917 292.331 312.684 292.488 312.513 292.803C312.343 293.116 312.258 293.629 312.258 294.343C312.258 294.705 312.276 295.014 312.314 295.271C312.351 295.527 312.408 295.736 312.485 295.897C312.565 296.056 312.664 296.173 312.783 296.247C312.904 296.322 313.048 296.359 313.213 296.359C313.414 296.359 313.585 296.29 313.728 296.153C313.872 296.015 313.982 295.798 314.057 295.502C314.134 295.203 314.172 294.817 314.172 294.343C314.172 293.863 314.138 293.474 314.071 293.178C314.005 292.881 313.902 292.667 313.759 292.534C313.619 292.398 313.437 292.331 313.213 292.331ZM313.924 292.502L314.078 293.017L312.545 296.121L312.328 295.712L313.924 292.502ZM314.148 304.526H312.24L311.855 305.755H311.257L312.825 300.935H313.602L315.17 305.755H314.533L314.148 304.526ZM312.398 304.022H313.99L313.199 301.446L312.398 304.022ZM312.993 309.858C313.296 309.858 313.557 309.913 313.777 310.023C313.998 310.13 314.17 310.276 314.291 310.46C314.413 310.642 314.473 310.843 314.473 311.062C314.473 311.256 314.43 311.432 314.344 311.591C314.257 311.749 314.143 311.88 314.001 311.983C313.858 312.085 313.702 312.153 313.532 312.186C313.721 312.2 313.898 312.253 314.064 312.347C314.229 312.438 314.365 312.568 314.47 312.739C314.575 312.907 314.627 313.116 314.627 313.365C314.627 313.643 314.557 313.894 314.417 314.118C314.277 314.339 314.081 314.514 313.829 314.643C313.58 314.771 313.288 314.835 312.954 314.835C312.686 314.835 312.418 314.784 312.149 314.681C311.883 314.579 311.658 314.415 311.474 314.191L311.869 313.869C312.007 314.03 312.17 314.15 312.359 314.23C312.551 314.309 312.744 314.349 312.94 314.349C313.276 314.349 313.539 314.261 313.728 314.086C313.917 313.909 314.011 313.669 314.011 313.365C314.011 313.137 313.967 312.956 313.878 312.823C313.792 312.69 313.674 312.595 313.525 312.539C313.375 312.481 313.205 312.452 313.014 312.452H312.608L312.681 311.986H312.965C313.121 311.986 313.268 311.957 313.406 311.899C313.546 311.838 313.66 311.745 313.749 311.619C313.837 311.493 313.882 311.335 313.882 311.146C313.882 310.88 313.793 310.677 313.616 310.537C313.438 310.397 313.224 310.327 312.972 310.327C312.762 310.327 312.579 310.365 312.422 310.439C312.266 310.512 312.108 310.622 311.95 310.772L311.624 310.411C311.83 310.218 312.048 310.078 312.279 309.991C312.51 309.903 312.748 309.858 312.993 309.858ZM313.728 318.935V323.615H313.14V319.572L312.034 320.244L311.778 319.824L313.213 318.935H313.728ZM314.736 323.275V323.755H311.953V323.275H314.736ZM314.522 327.935L314.435 328.404H312.531V329.923C312.678 329.844 312.817 329.79 312.947 329.762C313.08 329.732 313.219 329.717 313.364 329.717C313.625 329.717 313.855 329.776 314.053 329.895C314.252 330.012 314.406 330.183 314.515 330.41C314.625 330.636 314.68 330.909 314.68 331.229C314.68 331.548 314.612 331.83 314.477 332.072C314.344 332.315 314.156 332.503 313.913 332.636C313.671 332.769 313.382 332.835 313.049 332.835C312.759 332.835 312.5 332.784 312.272 332.681C312.045 332.579 311.839 332.436 311.652 332.254L312.016 331.904C312.163 332.054 312.321 332.166 312.489 332.24C312.659 332.313 312.848 332.349 313.056 332.349C313.373 332.349 313.62 332.253 313.798 332.062C313.975 331.868 314.064 331.585 314.064 331.211C314.064 330.952 314.025 330.748 313.948 330.599C313.871 330.449 313.766 330.343 313.633 330.28C313.503 330.215 313.357 330.182 313.196 330.182C313.053 330.182 312.927 330.196 312.818 330.224C312.708 330.25 312.583 330.29 312.443 330.343H311.971V327.935H314.522ZM314.333 339.322C314.333 338.902 314.289 338.566 314.2 338.314C314.112 338.062 313.995 337.873 313.85 337.747C313.706 337.621 313.547 337.537 313.374 337.495C313.204 337.453 313.036 337.432 312.87 337.432H312.303V341.268H312.877C313.05 341.268 313.221 341.241 313.392 341.188C313.564 341.132 313.722 341.034 313.864 340.894C314.007 340.751 314.12 340.554 314.204 340.302C314.29 340.048 314.333 339.721 314.333 339.322ZM314.981 339.322C314.981 339.724 314.938 340.067 314.851 340.351C314.767 340.634 314.652 340.867 314.505 341.051C314.358 341.236 314.19 341.379 314.001 341.482C313.814 341.582 313.617 341.653 313.409 341.695C313.204 341.735 313.002 341.755 312.804 341.755H311.698V336.935H312.727C313.009 336.935 313.283 336.967 313.549 337.03C313.818 337.093 314.059 337.209 314.274 337.38C314.491 337.548 314.662 337.788 314.788 338.101C314.917 338.413 314.981 338.821 314.981 339.322ZM313.031 345.858L313.521 346.065L312.24 349.113H314.813V349.582H311.617V349.155L313.031 345.858ZM314.19 347.745V350.755H313.623L313.619 349.225L313.7 347.745H314.19ZM313.728 354.935V359.615H313.14V355.572L312.034 356.244L311.778 355.824L313.213 354.935H313.728ZM314.736 359.275V359.755H311.953V359.275H314.736Z" fill="url(#paint2_linear_11_9)"/>
<path d="M343.795 215.519C344.315 215.519 344.708 215.733 344.974 216.163C345.24 216.592 345.373 217.206 345.373 218.004C345.373 218.804 345.24 219.42 344.974 219.852C344.708 220.281 344.315 220.496 343.795 220.496C343.277 220.496 342.883 220.281 342.615 219.852C342.349 219.42 342.216 218.804 342.216 218.004C342.216 217.206 342.349 216.592 342.615 216.163C342.883 215.733 343.277 215.519 343.795 215.519ZM343.795 215.991C343.498 215.991 343.265 216.149 343.095 216.464C342.924 216.776 342.839 217.29 342.839 218.004C342.839 218.365 342.858 218.674 342.895 218.931C342.932 219.188 342.99 219.397 343.067 219.558C343.146 219.716 343.245 219.833 343.364 219.908C343.485 219.982 343.629 220.02 343.795 220.02C343.995 220.02 344.167 219.951 344.309 219.813C344.454 219.675 344.563 219.458 344.638 219.162C344.715 218.863 344.754 218.477 344.754 218.004C344.754 217.523 344.72 217.134 344.652 216.838C344.587 216.542 344.483 216.327 344.341 216.194C344.201 216.059 344.019 215.991 343.795 215.991ZM344.505 216.163L344.659 216.677L343.126 219.782L342.909 219.372L344.505 216.163ZM344.729 228.187H342.822L342.437 229.415H341.838L343.406 224.596H344.183L345.751 229.415H345.114L344.729 228.187ZM342.979 227.683H344.572L343.781 225.107L342.979 227.683ZM343.574 233.519C343.877 233.519 344.139 233.573 344.358 233.683C344.58 233.79 344.751 233.936 344.873 234.121C344.994 234.303 345.055 234.503 345.055 234.723C345.055 234.916 345.011 235.092 344.925 235.251C344.839 235.41 344.724 235.54 344.582 235.643C344.44 235.746 344.283 235.813 344.113 235.846C344.302 235.86 344.479 235.914 344.645 236.007C344.811 236.098 344.946 236.229 345.051 236.399C345.156 236.567 345.209 236.776 345.209 237.026C345.209 237.303 345.139 237.554 344.999 237.778C344.859 238 344.663 238.175 344.411 238.303C344.161 238.431 343.869 238.496 343.536 238.496C343.267 238.496 342.999 238.444 342.731 238.342C342.465 238.239 342.239 238.076 342.055 237.852L342.451 237.53C342.588 237.691 342.752 237.811 342.941 237.89C343.132 237.969 343.326 238.009 343.522 238.009C343.858 238.009 344.12 237.922 344.309 237.747C344.498 237.569 344.593 237.329 344.593 237.026C344.593 236.797 344.548 236.616 344.46 236.483C344.373 236.35 344.255 236.256 344.106 236.2C343.957 236.141 343.786 236.112 343.595 236.112H343.189L343.263 235.647H343.546C343.702 235.647 343.849 235.617 343.987 235.559C344.127 235.498 344.241 235.405 344.33 235.279C344.419 235.153 344.463 234.996 344.463 234.807C344.463 234.541 344.374 234.338 344.197 234.198C344.02 234.058 343.805 233.988 343.553 233.988C343.343 233.988 343.16 234.025 343.004 234.1C342.847 234.172 342.69 234.283 342.531 234.432L342.206 234.072C342.411 233.878 342.629 233.738 342.86 233.652C343.091 233.563 343.329 233.519 343.574 233.519ZM344.309 242.596V247.275H343.721V243.233L342.615 243.905L342.36 243.485L343.795 242.596H344.309ZM345.317 246.936V247.415H342.535V246.936H345.317ZM345.104 251.596L345.016 252.065H343.112V253.584C343.259 253.504 343.398 253.451 343.529 253.423C343.662 253.392 343.8 253.377 343.945 253.377C344.206 253.377 344.436 253.437 344.635 253.556C344.833 253.672 344.987 253.844 345.097 254.07C345.206 254.296 345.261 254.569 345.261 254.889C345.261 255.209 345.193 255.49 345.058 255.733C344.925 255.975 344.737 256.163 344.495 256.296C344.252 256.429 343.964 256.496 343.63 256.496C343.341 256.496 343.082 256.444 342.853 256.342C342.627 256.239 342.42 256.097 342.234 255.915L342.598 255.565C342.745 255.714 342.902 255.826 343.07 255.901C343.24 255.973 343.429 256.009 343.637 256.009C343.954 256.009 344.202 255.913 344.379 255.722C344.556 255.528 344.645 255.245 344.645 254.872C344.645 254.613 344.607 254.408 344.53 254.259C344.453 254.11 344.348 254.004 344.215 253.941C344.084 253.875 343.938 253.843 343.777 253.843C343.635 253.843 343.509 253.857 343.399 253.885C343.289 253.91 343.165 253.95 343.025 254.004H342.552V251.596H345.104ZM344.915 262.983C344.915 262.563 344.87 262.227 344.782 261.975C344.693 261.723 344.576 261.534 344.432 261.408C344.287 261.282 344.128 261.198 343.956 261.156C343.785 261.114 343.617 261.093 343.452 261.093H342.885V264.929H343.459C343.631 264.929 343.803 264.902 343.973 264.848C344.146 264.792 344.303 264.694 344.446 264.554C344.588 264.412 344.701 264.215 344.785 263.963C344.871 263.708 344.915 263.382 344.915 262.983ZM345.562 262.983C345.562 263.384 345.519 263.727 345.433 264.012C345.349 264.294 345.233 264.527 345.086 264.712C344.939 264.896 344.771 265.039 344.582 265.142C344.395 265.242 344.198 265.314 343.991 265.356C343.785 265.395 343.583 265.415 343.385 265.415H342.279V260.596H343.308C343.59 260.596 343.865 260.627 344.131 260.69C344.399 260.753 344.64 260.87 344.855 261.04C345.072 261.208 345.244 261.448 345.37 261.761C345.498 262.074 345.562 262.481 345.562 262.983ZM343.613 269.519L344.103 269.725L342.822 272.774H345.394V273.243H342.199V272.816L343.613 269.519ZM344.771 271.405V274.415H344.204L344.201 272.886L344.281 271.405H344.771ZM344.309 278.596V283.275H343.721V279.233L342.615 279.905L342.36 279.485L343.795 278.596H344.309ZM345.317 282.936V283.415H342.535V282.936H345.317Z" fill="url(#paint3_linear_11_9)"/>
<path d="M262.888 245.688C263.929 245.688 264.715 246.117 265.247 246.976C265.779 247.835 266.045 249.062 266.045 250.658C266.045 252.259 265.779 253.491 265.247 254.354C264.715 255.213 263.929 255.642 262.888 255.642C261.852 255.642 261.066 255.213 260.529 254.354C259.997 253.491 259.731 252.259 259.731 250.658C259.731 249.062 259.997 247.835 260.529 246.976C261.066 246.117 261.852 245.688 262.888 245.688ZM262.888 246.633C262.295 246.633 261.829 246.948 261.488 247.578C261.147 248.203 260.977 249.23 260.977 250.658C260.977 251.381 261.014 252 261.089 252.513C261.164 253.026 261.278 253.444 261.432 253.766C261.591 254.083 261.789 254.317 262.027 254.466C262.27 254.615 262.557 254.69 262.888 254.69C263.289 254.69 263.632 254.552 263.917 254.277C264.206 254.002 264.426 253.568 264.575 252.975C264.729 252.378 264.806 251.605 264.806 250.658C264.806 249.697 264.738 248.92 264.603 248.327C264.472 247.734 264.265 247.305 263.98 247.039C263.7 246.768 263.336 246.633 262.888 246.633ZM264.309 246.976L264.617 248.005L261.551 254.214L261.117 253.395L264.309 246.976ZM264.757 271.024H260.942L260.172 273.481H258.975L262.111 263.842H263.665L266.801 273.481H265.527L264.757 271.024ZM261.257 270.016H264.442L262.86 264.864L261.257 270.016ZM262.447 281.688C263.054 281.688 263.576 281.798 264.015 282.017C264.458 282.232 264.801 282.523 265.044 282.892C265.287 283.256 265.408 283.657 265.408 284.096C265.408 284.483 265.322 284.836 265.149 285.153C264.976 285.47 264.748 285.732 264.463 285.937C264.178 286.142 263.866 286.278 263.525 286.343C263.903 286.371 264.258 286.478 264.589 286.665C264.92 286.847 265.191 287.108 265.401 287.449C265.611 287.785 265.716 288.203 265.716 288.702C265.716 289.257 265.576 289.759 265.296 290.207C265.016 290.65 264.624 291 264.12 291.257C263.621 291.514 263.037 291.642 262.37 291.642C261.833 291.642 261.297 291.539 260.76 291.334C260.228 291.129 259.778 290.802 259.409 290.354L260.2 289.71C260.475 290.032 260.802 290.272 261.18 290.431C261.563 290.59 261.95 290.669 262.342 290.669C263.014 290.669 263.539 290.494 263.917 290.144C264.295 289.789 264.484 289.309 264.484 288.702C264.484 288.245 264.395 287.883 264.218 287.617C264.045 287.351 263.81 287.162 263.511 287.05C263.212 286.933 262.872 286.875 262.489 286.875H261.677L261.824 285.944H262.391C262.704 285.944 262.998 285.886 263.273 285.769C263.553 285.648 263.782 285.461 263.959 285.209C264.136 284.957 264.225 284.642 264.225 284.264C264.225 283.732 264.048 283.326 263.693 283.046C263.338 282.766 262.909 282.626 262.405 282.626C261.985 282.626 261.619 282.701 261.306 282.85C260.993 282.995 260.678 283.216 260.361 283.515L259.71 282.794C260.121 282.407 260.557 282.127 261.019 281.954C261.481 281.777 261.957 281.688 262.447 281.688ZM263.917 299.842V309.201H262.741V301.116L260.529 302.46L260.018 301.62L262.888 299.842H263.917ZM265.933 308.522V309.481H260.368V308.522H265.933ZM265.506 317.842L265.331 318.78H261.523V321.818C261.817 321.659 262.095 321.552 262.356 321.496C262.622 321.435 262.9 321.405 263.189 321.405C263.712 321.405 264.171 321.524 264.568 321.762C264.965 321.995 265.273 322.338 265.492 322.791C265.711 323.244 265.821 323.79 265.821 324.429C265.821 325.068 265.686 325.631 265.415 326.116C265.149 326.601 264.773 326.977 264.288 327.243C263.803 327.509 263.226 327.642 262.559 327.642C261.98 327.642 261.462 327.539 261.005 327.334C260.552 327.129 260.139 326.844 259.766 326.48L260.494 325.78C260.788 326.079 261.103 326.303 261.439 326.452C261.78 326.597 262.158 326.669 262.573 326.669C263.208 326.669 263.702 326.478 264.057 326.095C264.412 325.708 264.589 325.141 264.589 324.394C264.589 323.876 264.512 323.468 264.358 323.169C264.204 322.87 263.994 322.658 263.728 322.532C263.467 322.401 263.175 322.336 262.853 322.336C262.568 322.336 262.316 322.364 262.097 322.42C261.878 322.471 261.628 322.551 261.348 322.658H260.403V317.842H265.506ZM265.128 340.616C265.128 339.776 265.039 339.104 264.862 338.6C264.685 338.096 264.451 337.718 264.162 337.466C263.873 337.214 263.555 337.046 263.21 336.962C262.869 336.878 262.533 336.836 262.202 336.836H261.068V344.508H262.216C262.561 344.508 262.904 344.454 263.245 344.347C263.59 344.235 263.905 344.039 264.19 343.759C264.475 343.474 264.701 343.08 264.869 342.576C265.042 342.067 265.128 341.414 265.128 340.616ZM266.423 340.616C266.423 341.419 266.337 342.105 266.164 342.674C265.996 343.239 265.765 343.705 265.471 344.074C265.177 344.443 264.841 344.73 264.463 344.935C264.09 345.136 263.695 345.278 263.28 345.362C262.869 345.441 262.466 345.481 262.069 345.481H259.857V335.842H261.915C262.48 335.842 263.028 335.905 263.56 336.031C264.097 336.157 264.58 336.39 265.009 336.731C265.443 337.067 265.786 337.548 266.038 338.173C266.295 338.798 266.423 339.613 266.423 340.616ZM266.213 356.544C266.213 357.025 266.108 357.445 265.898 357.804C265.693 358.163 265.413 358.46 265.058 358.693C264.703 358.926 264.304 359.097 263.861 359.204L266.717 363.481H265.261L262.629 359.344H261.327V363.481H260.109V353.842H262.587C263.777 353.842 264.678 354.071 265.289 354.528C265.905 354.981 266.213 355.653 266.213 356.544ZM264.911 356.544C264.911 355.923 264.734 355.48 264.379 355.214C264.024 354.943 263.474 354.808 262.727 354.808H261.327V358.392H262.727C263.418 358.392 263.954 358.252 264.337 357.972C264.72 357.687 264.911 357.211 264.911 356.544ZM263.077 381.642C262.316 381.642 261.654 381.458 261.089 381.089C260.529 380.72 260.095 380.167 259.787 379.43C259.479 378.693 259.325 377.769 259.325 376.658C259.325 375.827 259.435 375.102 259.654 374.481C259.878 373.86 260.179 373.342 260.557 372.927C260.94 372.512 261.371 372.201 261.852 371.996C262.337 371.791 262.839 371.688 263.357 371.688C263.987 371.688 264.51 371.779 264.925 371.961C265.34 372.138 265.737 372.4 266.115 372.745L265.38 373.508C265.086 373.233 264.776 373.03 264.449 372.899C264.127 372.768 263.765 372.703 263.364 372.703C263.014 372.703 262.676 372.771 262.349 372.906C262.022 373.041 261.728 373.263 261.467 373.571C261.21 373.874 261.005 374.278 260.851 374.782C260.702 375.286 260.627 375.911 260.627 376.658C260.627 377.587 260.723 378.343 260.914 378.926C261.11 379.509 261.397 379.939 261.775 380.214C262.158 380.485 262.629 380.62 263.189 380.62C263.525 380.62 263.842 380.58 264.141 380.501C264.444 380.422 264.738 380.307 265.023 380.158V377.218H263.126L262.979 376.21H266.227V380.802C265.793 381.035 265.331 381.234 264.841 381.397C264.351 381.56 263.763 381.642 263.077 381.642Z" fill="url(#paint4_linear_11_9)"/>
<defs>
<filter id="filter0_f_11_9" x="0.600006" y="0.600006" width="542.814" height="456.974" filterUnits="userSpaceOnUse" color-interpolation-filters="sRGB">
<feFlood flood-opacity="0" result="BackgroundImageFix"/>
<feBlend mode="normal" in="SourceGraphic" in2="BackgroundImageFix" result="shape"/>
<feGaussianBlur stdDeviation="94.2" result="effect1_foregroundBlur_11_9"/>
</filter>
<linearGradient id="paint0_linear_11_9" x1="221.553" y1="180.858" x2="221.553" y2="342.519" gradientUnits="userSpaceOnUse">
<stop stop-color="#A5EA13"/>
<stop offset="1" stop-color="#1382EA" stop-opacity="0"/>
</linearGradient>
<linearGradient id="paint1_linear_11_9" x1="289.997" y1="173" x2="289.997" y2="253.83" gradientUnits="userSpaceOnUse">
<stop stop-color="#A5EA13"/>
<stop offset="1" stop-color="#1382EA" stop-opacity="0"/>
</linearGradient>
<linearGradient id="paint2_linear_11_9" x1="314.754" y1="289.755" x2="314.754" y2="370.585" gradientUnits="userSpaceOnUse">
<stop stop-color="#A5EA13"/>
<stop offset="1" stop-color="#1382EA" stop-opacity="0"/>
</linearGradient>
<linearGradient id="paint3_linear_11_9" x1="345.335" y1="213.415" x2="345.335" y2="294.245" gradientUnits="userSpaceOnUse">
<stop stop-color="#A5EA13"/>
<stop offset="1" stop-color="#1382EA" stop-opacity="0"/>
</linearGradient>
<linearGradient id="paint4_linear_11_9" x1="265.241" y1="241.481" x2="265.241" y2="403.142" gradientUnits="userSpaceOnUse">
<stop stop-color="#A5EA13"/>
<stop offset="1" stop-color="#1382EA" stop-opacity="0"/>
</linearGradient>
</defs>
</svg>
