<svg width="134" height="231" viewBox="0 0 134 231" fill="none" xmlns="http://www.w3.org/2000/svg">
<path d="M4.2 12.0655C5.24067 12.0655 6.027 12.4948 6.559 13.3535C7.091 14.2122 7.357 15.4395 7.357 17.0355C7.357 18.6362 7.091 19.8682 6.559 20.7315C6.027 21.5902 5.24067 22.0195 4.2 22.0195C3.164 22.0195 2.37767 21.5902 1.841 20.7315C1.309 19.8682 1.043 18.6362 1.043 17.0355C1.043 15.4395 1.309 14.2122 1.841 13.3535C2.37767 12.4948 3.164 12.0655 4.2 12.0655ZM4.2 13.0105C3.60733 13.0105 3.14067 13.3255 2.8 13.9555C2.45933 14.5808 2.289 15.6075 2.289 17.0355C2.289 17.7588 2.32633 18.3772 2.401 18.8905C2.47567 19.4038 2.59 19.8215 2.744 20.1435C2.90267 20.4608 3.101 20.6942 3.339 20.8435C3.58167 20.9928 3.86867 21.0675 4.2 21.0675C4.60133 21.0675 4.94433 20.9298 5.229 20.6545C5.51833 20.3792 5.73767 19.9452 5.887 19.3525C6.041 18.7552 6.118 17.9828 6.118 17.0355C6.118 16.0742 6.05033 15.2972 5.915 14.7045C5.78433 14.1118 5.57667 13.6825 5.292 13.4165C5.012 13.1458 4.648 13.0105 4.2 13.0105ZM5.621 13.3535L5.929 14.3825L2.863 20.5915L2.429 19.7725L5.621 13.3535ZM6.069 37.4015H2.254L1.484 39.8585H0.287L3.423 30.2195H4.977L8.113 39.8585H6.839L6.069 37.4015ZM2.569 36.3935H5.754L4.172 31.2415L2.569 36.3935ZM3.759 48.0655C4.36567 48.0655 4.88833 48.1752 5.327 48.3945C5.77033 48.6092 6.11333 48.9008 6.356 49.2695C6.59867 49.6335 6.72 50.0348 6.72 50.4735C6.72 50.8608 6.63367 51.2132 6.461 51.5305C6.28833 51.8478 6.05967 52.1092 5.775 52.3145C5.49033 52.5198 5.17767 52.6552 4.837 52.7205C5.215 52.7485 5.56967 52.8558 5.901 53.0425C6.23233 53.2245 6.503 53.4858 6.713 53.8265C6.923 54.1625 7.028 54.5802 7.028 55.0795C7.028 55.6348 6.888 56.1365 6.608 56.5845C6.328 57.0278 5.936 57.3778 5.432 57.6345C4.93267 57.8912 4.34933 58.0195 3.682 58.0195C3.14533 58.0195 2.60867 57.9168 2.072 57.7115C1.54 57.5062 1.08967 57.1795 0.721 56.7315L1.512 56.0875C1.78733 56.4095 2.114 56.6498 2.492 56.8085C2.87467 56.9672 3.262 57.0465 3.654 57.0465C4.326 57.0465 4.851 56.8715 5.229 56.5215C5.607 56.1668 5.796 55.6862 5.796 55.0795C5.796 54.6222 5.70733 54.2605 5.53 53.9945C5.35733 53.7285 5.12167 53.5395 4.823 53.4275C4.52433 53.3108 4.18367 53.2525 3.801 53.2525H2.989L3.136 52.3215H3.703C4.01567 52.3215 4.30967 52.2632 4.585 52.1465C4.865 52.0252 5.09367 51.8385 5.271 51.5865C5.44833 51.3345 5.537 51.0195 5.537 50.6415C5.537 50.1095 5.35967 49.7035 5.005 49.4235C4.65033 49.1435 4.221 49.0035 3.717 49.0035C3.297 49.0035 2.93067 49.0782 2.618 49.2275C2.30533 49.3722 1.99033 49.5938 1.673 49.8925L1.022 49.1715C1.43267 48.7842 1.869 48.5042 2.331 48.3315C2.793 48.1542 3.269 48.0655 3.759 48.0655ZM5.229 66.2195V75.5785H4.053V67.4935L1.841 68.8375L1.33 67.9975L4.2 66.2195H5.229ZM7.245 74.8995V75.8585H1.68V74.8995H7.245ZM6.818 84.2195L6.643 85.1575H2.835V88.1955C3.129 88.0368 3.40667 87.9295 3.668 87.8735C3.934 87.8128 4.21167 87.7825 4.501 87.7825C5.02367 87.7825 5.48333 87.9015 5.88 88.1395C6.27667 88.3728 6.58467 88.7158 6.804 89.1685C7.02333 89.6212 7.133 90.1672 7.133 90.8065C7.133 91.4458 6.99767 92.0082 6.727 92.4935C6.461 92.9788 6.08533 93.3545 5.6 93.6205C5.11467 93.8865 4.53833 94.0195 3.871 94.0195C3.29233 94.0195 2.77433 93.9168 2.317 93.7115C1.86433 93.5062 1.45133 93.2215 1.078 92.8575L1.806 92.1575C2.1 92.4562 2.415 92.6802 2.751 92.8295C3.09167 92.9742 3.46967 93.0465 3.885 93.0465C4.51967 93.0465 5.01433 92.8552 5.369 92.4725C5.72367 92.0852 5.901 91.5182 5.901 90.7715C5.901 90.2535 5.824 89.8452 5.67 89.5465C5.516 89.2478 5.306 89.0355 5.04 88.9095C4.77867 88.7788 4.487 88.7135 4.165 88.7135C3.88033 88.7135 3.62833 88.7415 3.409 88.7975C3.18967 88.8488 2.94 88.9282 2.66 89.0355H1.715V84.2195H6.818ZM6.44 106.993C6.44 106.153 6.35133 105.481 6.174 104.977C5.99667 104.473 5.76333 104.095 5.474 103.843C5.18467 103.591 4.86733 103.423 4.522 103.339C4.18133 103.255 3.84533 103.213 3.514 103.213H2.38V110.885H3.528C3.87333 110.885 4.21633 110.832 4.557 110.724C4.90233 110.612 5.21733 110.416 5.502 110.136C5.78667 109.852 6.013 109.457 6.181 108.953C6.35367 108.445 6.44 107.791 6.44 106.993ZM7.735 106.993C7.735 107.796 7.64867 108.482 7.476 109.051C7.308 109.616 7.077 110.083 6.783 110.451C6.489 110.82 6.153 111.107 5.775 111.312C5.40167 111.513 5.00733 111.655 4.592 111.739C4.18133 111.819 3.77767 111.858 3.381 111.858H1.169V102.219H3.227C3.79167 102.219 4.34 102.282 4.872 102.408C5.40867 102.534 5.89167 102.768 6.321 103.108C6.755 103.444 7.098 103.925 7.35 104.55C7.60667 105.176 7.735 105.99 7.735 106.993ZM7.525 122.921C7.525 123.402 7.42 123.822 7.21 124.181C7.00467 124.541 6.72467 124.837 6.37 125.07C6.01533 125.304 5.61633 125.474 5.173 125.581L8.029 129.858H6.573L3.941 125.721H2.639V129.858H1.421V120.219H3.899C5.089 120.219 5.98967 120.448 6.601 120.905C7.217 121.358 7.525 122.03 7.525 122.921ZM6.223 122.921C6.223 122.301 6.04567 121.857 5.691 121.591C5.33633 121.321 4.78567 121.185 4.039 121.185H2.639V124.769H4.039C4.72967 124.769 5.26633 124.629 5.649 124.349C6.03167 124.065 6.223 123.589 6.223 122.921ZM4.389 148.019C3.62833 148.019 2.96567 147.835 2.401 147.466C1.841 147.098 1.407 146.545 1.099 145.807C0.791 145.07 0.637 144.146 0.637 143.035C0.637 142.205 0.746667 141.479 0.966 140.858C1.19 140.238 1.491 139.72 1.869 139.304C2.25167 138.889 2.68333 138.579 3.164 138.373C3.64933 138.168 4.151 138.065 4.669 138.065C5.299 138.065 5.82167 138.156 6.237 138.338C6.65233 138.516 7.049 138.777 7.427 139.122L6.692 139.885C6.398 139.61 6.08767 139.407 5.761 139.276C5.439 139.146 5.07733 139.08 4.676 139.08C4.326 139.08 3.98767 139.148 3.661 139.283C3.33433 139.419 3.04033 139.64 2.779 139.948C2.52233 140.252 2.317 140.655 2.163 141.159C2.01367 141.663 1.939 142.289 1.939 143.035C1.939 143.964 2.03467 144.72 2.226 145.303C2.422 145.887 2.709 146.316 3.087 146.591C3.46967 146.862 3.941 146.997 4.501 146.997C4.837 146.997 5.15433 146.958 5.453 146.878C5.75633 146.799 6.05033 146.685 6.335 146.535V143.595H4.438L4.291 142.587H7.539V147.179C7.105 147.413 6.643 147.611 6.153 147.774C5.663 147.938 5.075 148.019 4.389 148.019Z" fill="url(#paint0_linear_11_9)"/>
<path d="M73.4568 2.1035C73.9771 2.1035 74.3703 2.31817 74.6363 2.7475C74.9023 3.17683 75.0353 3.7905 75.0353 4.5885C75.0353 5.38883 74.9023 6.00483 74.6363 6.4365C74.3703 6.86583 73.9771 7.0805 73.4568 7.0805C72.9388 7.0805 72.5456 6.86583 72.2773 6.4365C72.0113 6.00483 71.8783 5.38883 71.8783 4.5885C71.8783 3.7905 72.0113 3.17683 72.2773 2.7475C72.5456 2.31817 72.9388 2.1035 73.4568 2.1035ZM73.4568 2.576C73.1604 2.576 72.9271 2.7335 72.7568 3.0485C72.5864 3.36117 72.5013 3.8745 72.5013 4.5885C72.5013 4.95017 72.5199 5.25933 72.5573 5.516C72.5946 5.77267 72.6518 5.9815 72.7288 6.1425C72.8081 6.30117 72.9073 6.41783 73.0263 6.4925C73.1476 6.56717 73.2911 6.6045 73.4568 6.6045C73.6574 6.6045 73.8289 6.53567 73.9713 6.398C74.1159 6.26033 74.2256 6.04333 74.3003 5.747C74.3773 5.44833 74.4158 5.06217 74.4158 4.5885C74.4158 4.10783 74.3819 3.71933 74.3143 3.423C74.2489 3.12667 74.1451 2.912 74.0028 2.779C73.8628 2.64367 73.6808 2.576 73.4568 2.576ZM74.1673 2.7475L74.3213 3.262L72.7883 6.3665L72.5713 5.957L74.1673 2.7475ZM74.3913 14.7715H72.4838L72.0988 16H71.5003L73.0683 11.1805H73.8453L75.4133 16H74.7763L74.3913 14.7715ZM72.6413 14.2675H74.2338L73.4428 11.6915L72.6413 14.2675ZM73.2363 20.1035C73.5396 20.1035 73.8009 20.1583 74.0203 20.268C74.2419 20.3753 74.4134 20.5212 74.5348 20.7055C74.6561 20.8875 74.7168 21.0882 74.7168 21.3075C74.7168 21.5012 74.6736 21.6773 74.5873 21.836C74.5009 21.9947 74.3866 22.1253 74.2443 22.228C74.1019 22.3307 73.9456 22.3983 73.7753 22.431C73.9643 22.445 74.1416 22.4987 74.3073 22.592C74.4729 22.683 74.6083 22.8137 74.7133 22.984C74.8183 23.152 74.8708 23.3608 74.8708 23.6105C74.8708 23.8882 74.8008 24.139 74.6608 24.363C74.5208 24.5847 74.3248 24.7597 74.0728 24.888C73.8231 25.0163 73.5314 25.0805 73.1978 25.0805C72.9294 25.0805 72.6611 25.0292 72.3928 24.9265C72.1268 24.8238 71.9016 24.6605 71.7173 24.4365L72.1128 24.1145C72.2504 24.2755 72.4138 24.3957 72.6028 24.475C72.7941 24.5543 72.9878 24.594 73.1838 24.594C73.5198 24.594 73.7823 24.5065 73.9713 24.3315C74.1603 24.1542 74.2548 23.9138 74.2548 23.6105C74.2548 23.3818 74.2104 23.201 74.1218 23.068C74.0354 22.935 73.9176 22.8405 73.7683 22.7845C73.6189 22.7262 73.4486 22.697 73.2573 22.697H72.8513L72.9248 22.2315H73.2083C73.3646 22.2315 73.5116 22.2023 73.6493 22.144C73.7893 22.0833 73.9036 21.99 73.9923 21.864C74.0809 21.738 74.1253 21.5805 74.1253 21.3915C74.1253 21.1255 74.0366 20.9225 73.8593 20.7825C73.6819 20.6425 73.4673 20.5725 73.2153 20.5725C73.0053 20.5725 72.8221 20.6098 72.6658 20.6845C72.5094 20.7568 72.3519 20.8677 72.1933 21.017L71.8678 20.6565C72.0731 20.4628 72.2913 20.3228 72.5223 20.2365C72.7533 20.1478 72.9913 20.1035 73.2363 20.1035ZM73.9713 29.1805V33.86H73.3833V29.8175L72.2773 30.4895L72.0218 30.0695L73.4568 29.1805H73.9713ZM74.9793 33.5205V34H72.1968V33.5205H74.9793ZM74.7658 38.1805L74.6783 38.6495H72.7743V40.1685C72.9213 40.0892 73.0601 40.0355 73.1908 40.0075C73.3238 39.9772 73.4626 39.962 73.6073 39.962C73.8686 39.962 74.0984 40.0215 74.2968 40.1405C74.4951 40.2572 74.6491 40.4287 74.7588 40.655C74.8684 40.8813 74.9233 41.1543 74.9233 41.474C74.9233 41.7937 74.8556 42.0748 74.7203 42.3175C74.5873 42.5602 74.3994 42.748 74.1568 42.881C73.9141 43.014 73.6259 43.0805 73.2923 43.0805C73.0029 43.0805 72.7439 43.0292 72.5153 42.9265C72.2889 42.8238 72.0824 42.6815 71.8958 42.4995L72.2598 42.1495C72.4068 42.2988 72.5643 42.4108 72.7323 42.4855C72.9026 42.5578 73.0916 42.594 73.2993 42.594C73.6166 42.594 73.8639 42.4983 74.0413 42.307C74.2186 42.1133 74.3073 41.8298 74.3073 41.4565C74.3073 41.1975 74.2688 40.9933 74.1918 40.844C74.1148 40.6947 74.0098 40.5885 73.8768 40.5255C73.7461 40.4602 73.6003 40.4275 73.4393 40.4275C73.2969 40.4275 73.1709 40.4415 73.0613 40.4695C72.9516 40.4952 72.8268 40.5348 72.6868 40.5885H72.2143V38.1805H74.7658ZM74.5768 49.5675C74.5768 49.1475 74.5324 48.8115 74.4438 48.5595C74.3551 48.3075 74.2384 48.1185 74.0938 47.9925C73.9491 47.8665 73.7904 47.7825 73.6178 47.7405C73.4474 47.6985 73.2794 47.6775 73.1138 47.6775H72.5468V51.5135H73.1208C73.2934 51.5135 73.4649 51.4867 73.6353 51.433C73.8079 51.377 73.9654 51.279 74.1078 51.139C74.2501 50.9967 74.3633 50.7995 74.4473 50.5475C74.5336 50.2932 74.5768 49.9665 74.5768 49.5675ZM75.2243 49.5675C75.2243 49.9688 75.1811 50.3118 75.0948 50.5965C75.0108 50.8788 74.8953 51.1122 74.7483 51.2965C74.6013 51.4808 74.4333 51.6243 74.2443 51.727C74.0576 51.8273 73.8604 51.8985 73.6528 51.9405C73.4474 51.9802 73.2456 52 73.0473 52H71.9413V47.1805H72.9703C73.2526 47.1805 73.5268 47.212 73.7928 47.275C74.0611 47.338 74.3026 47.4547 74.5173 47.625C74.7343 47.793 74.9058 48.0333 75.0318 48.346C75.1601 48.6587 75.2243 49.0658 75.2243 49.5675ZM73.2748 56.1035L73.7648 56.31L72.4838 59.3585H75.0563V59.8275H71.8608V59.4005L73.2748 56.1035ZM74.4333 57.99V61H73.8663L73.8628 59.4705L73.9433 57.99H74.4333ZM73.9713 65.1805V69.86H73.3833V65.8175L72.2773 66.4895L72.0218 66.0695L73.4568 65.1805H73.9713ZM74.9793 69.5205V70H72.1968V69.5205H74.9793Z" fill="url(#paint1_linear_11_9)"/>
<path d="M98.2132 118.858C98.7336 118.858 99.1267 119.073 99.3927 119.502C99.6587 119.932 99.7917 120.545 99.7917 121.343C99.7917 122.144 99.6587 122.76 99.3927 123.191C99.1267 123.621 98.7336 123.835 98.2132 123.835C97.6952 123.835 97.3021 123.621 97.0337 123.191C96.7677 122.76 96.6347 122.144 96.6347 121.343C96.6347 120.545 96.7677 119.932 97.0337 119.502C97.3021 119.073 97.6952 118.858 98.2132 118.858ZM98.2132 119.331C97.9169 119.331 97.6836 119.488 97.5132 119.803C97.3429 120.116 97.2577 120.629 97.2577 121.343C97.2577 121.705 97.2764 122.014 97.3137 122.271C97.3511 122.527 97.4082 122.736 97.4852 122.897C97.5646 123.056 97.6637 123.173 97.7827 123.247C97.9041 123.322 98.0476 123.359 98.2132 123.359C98.4139 123.359 98.5854 123.29 98.7277 123.153C98.8724 123.015 98.9821 122.798 99.0567 122.502C99.1337 122.203 99.1722 121.817 99.1722 121.343C99.1722 120.863 99.1384 120.474 99.0707 120.178C99.0054 119.881 98.9016 119.667 98.7592 119.534C98.6192 119.398 98.4372 119.331 98.2132 119.331ZM98.9237 119.502L99.0777 120.017L97.5447 123.121L97.3277 122.712L98.9237 119.502ZM99.1477 131.526H97.2402L96.8552 132.755H96.2567L97.8247 127.935H98.6017L100.17 132.755H99.5327L99.1477 131.526ZM97.3977 131.022H98.9902L98.1992 128.446L97.3977 131.022ZM97.9927 136.858C98.2961 136.858 98.5574 136.913 98.7767 137.023C98.9984 137.13 99.1699 137.276 99.2912 137.46C99.4126 137.642 99.4732 137.843 99.4732 138.062C99.4732 138.256 99.4301 138.432 99.3437 138.591C99.2574 138.749 99.1431 138.88 99.0007 138.983C98.8584 139.085 98.7021 139.153 98.5317 139.186C98.7207 139.2 98.8981 139.253 99.0637 139.347C99.2294 139.438 99.3647 139.568 99.4697 139.739C99.5747 139.907 99.6272 140.116 99.6272 140.365C99.6272 140.643 99.5572 140.894 99.4172 141.118C99.2772 141.339 99.0812 141.514 98.8292 141.643C98.5796 141.771 98.2879 141.835 97.9542 141.835C97.6859 141.835 97.4176 141.784 97.1492 141.681C96.8832 141.579 96.6581 141.415 96.4737 141.191L96.8692 140.869C97.0069 141.03 97.1702 141.15 97.3592 141.23C97.5506 141.309 97.7442 141.349 97.9402 141.349C98.2762 141.349 98.5387 141.261 98.7277 141.086C98.9167 140.909 99.0112 140.669 99.0112 140.365C99.0112 140.137 98.9669 139.956 98.8782 139.823C98.7919 139.69 98.6741 139.595 98.5247 139.539C98.3754 139.481 98.2051 139.452 98.0137 139.452H97.6077L97.6812 138.986H97.9647C98.1211 138.986 98.2681 138.957 98.4057 138.899C98.5457 138.838 98.6601 138.745 98.7487 138.619C98.8374 138.493 98.8817 138.335 98.8817 138.146C98.8817 137.88 98.7931 137.677 98.6157 137.537C98.4384 137.397 98.2237 137.327 97.9717 137.327C97.7617 137.327 97.5786 137.365 97.4222 137.439C97.2659 137.512 97.1084 137.622 96.9497 137.772L96.6242 137.411C96.8296 137.218 97.0477 137.078 97.2787 136.991C97.5097 136.903 97.7477 136.858 97.9927 136.858ZM98.7277 145.935V150.615H98.1397V146.572L97.0337 147.244L96.7782 146.824L98.2132 145.935H98.7277ZM99.7357 150.275V150.755H96.9532V150.275H99.7357ZM99.5222 154.935L99.4347 155.404H97.5307V156.923C97.6777 156.844 97.8166 156.79 97.9472 156.762C98.0802 156.732 98.2191 156.717 98.3637 156.717C98.6251 156.717 98.8549 156.776 99.0532 156.895C99.2516 157.012 99.4056 157.183 99.5152 157.41C99.6249 157.636 99.6797 157.909 99.6797 158.229C99.6797 158.548 99.6121 158.83 99.4767 159.072C99.3437 159.315 99.1559 159.503 98.9132 159.636C98.6706 159.769 98.3824 159.835 98.0487 159.835C97.7594 159.835 97.5004 159.784 97.2717 159.681C97.0454 159.579 96.8389 159.436 96.6522 159.254L97.0162 158.904C97.1632 159.054 97.3207 159.166 97.4887 159.24C97.6591 159.313 97.8481 159.349 98.0557 159.349C98.3731 159.349 98.6204 159.253 98.7977 159.062C98.9751 158.868 99.0637 158.585 99.0637 158.211C99.0637 157.952 99.0252 157.748 98.9482 157.599C98.8712 157.449 98.7662 157.343 98.6332 157.28C98.5026 157.215 98.3567 157.182 98.1957 157.182C98.0534 157.182 97.9274 157.196 97.8177 157.224C97.7081 157.25 97.5832 157.29 97.4432 157.343H96.9707V154.935H99.5222ZM99.3332 166.322C99.3332 165.902 99.2889 165.566 99.2002 165.314C99.1116 165.062 98.9949 164.873 98.8502 164.747C98.7056 164.621 98.5469 164.537 98.3742 164.495C98.2039 164.453 98.0359 164.432 97.8702 164.432H97.3032V168.268H97.8772C98.0499 168.268 98.2214 168.241 98.3917 168.188C98.5644 168.132 98.7219 168.034 98.8642 167.894C99.0066 167.751 99.1197 167.554 99.2037 167.302C99.2901 167.048 99.3332 166.721 99.3332 166.322ZM99.9807 166.322C99.9807 166.724 99.9376 167.067 99.8512 167.351C99.7672 167.634 99.6517 167.867 99.5047 168.051C99.3577 168.236 99.1897 168.379 99.0007 168.482C98.8141 168.582 98.6169 168.653 98.4092 168.695C98.2039 168.735 98.0021 168.755 97.8037 168.755H96.6977V163.935H97.7267C98.0091 163.935 98.2832 163.967 98.5492 164.03C98.8176 164.093 99.0591 164.209 99.2737 164.38C99.4907 164.548 99.6622 164.788 99.7882 165.101C99.9166 165.413 99.9807 165.821 99.9807 166.322ZM98.0312 172.858L98.5212 173.065L97.2402 176.113H99.8127V176.582H96.6172V176.155L98.0312 172.858ZM99.1897 174.745V177.755H98.6227L98.6192 176.225L98.6997 174.745H99.1897ZM98.7277 181.935V186.615H98.1397V182.572L97.0337 183.244L96.7782 182.824L98.2132 181.935H98.7277ZM99.7357 186.275V186.755H96.9532V186.275H99.7357Z" fill="url(#paint2_linear_11_9)"/>
<path d="M128.795 42.5186C129.315 42.5186 129.708 42.7333 129.974 43.1626C130.24 43.5919 130.373 44.2056 130.373 45.0036C130.373 45.8039 130.24 46.4199 129.974 46.8516C129.708 47.2809 129.315 47.4956 128.795 47.4956C128.277 47.4956 127.883 47.2809 127.615 46.8516C127.349 46.4199 127.216 45.8039 127.216 45.0036C127.216 44.2056 127.349 43.5919 127.615 43.1626C127.883 42.7333 128.277 42.5186 128.795 42.5186ZM128.795 42.9911C128.498 42.9911 128.265 43.1486 128.095 43.4636C127.924 43.7763 127.839 44.2896 127.839 45.0036C127.839 45.3653 127.858 45.6744 127.895 45.9311C127.932 46.1878 127.99 46.3966 128.067 46.5576C128.146 46.7163 128.245 46.8329 128.364 46.9076C128.485 46.9823 128.629 47.0196 128.795 47.0196C128.995 47.0196 129.167 46.9508 129.309 46.8131C129.454 46.6754 129.563 46.4584 129.638 46.1621C129.715 45.8634 129.754 45.4773 129.754 45.0036C129.754 44.5229 129.72 44.1344 129.652 43.8381C129.587 43.5418 129.483 43.3271 129.341 43.1941C129.201 43.0588 129.019 42.9911 128.795 42.9911ZM129.505 43.1626L129.659 43.6771L128.126 46.7816L127.909 46.3721L129.505 43.1626ZM129.729 55.1866H127.822L127.437 56.4151H126.838L128.406 51.5956H129.183L130.751 56.4151H130.114L129.729 55.1866ZM127.979 54.6826H129.572L128.781 52.1066L127.979 54.6826ZM128.574 60.5186C128.877 60.5186 129.139 60.5734 129.358 60.6831C129.58 60.7904 129.751 60.9363 129.873 61.1206C129.994 61.3026 130.055 61.5033 130.055 61.7226C130.055 61.9163 130.011 62.0924 129.925 62.2511C129.839 62.4098 129.724 62.5404 129.582 62.6431C129.44 62.7458 129.283 62.8134 129.113 62.8461C129.302 62.8601 129.479 62.9138 129.645 63.0071C129.811 63.0981 129.946 63.2288 130.051 63.3991C130.156 63.5671 130.209 63.7759 130.209 64.0256C130.209 64.3033 130.139 64.5541 129.999 64.7781C129.859 64.9998 129.663 65.1748 129.411 65.3031C129.161 65.4314 128.869 65.4956 128.536 65.4956C128.267 65.4956 127.999 65.4443 127.731 65.3416C127.465 65.2389 127.239 65.0756 127.055 64.8516L127.451 64.5296C127.588 64.6906 127.752 64.8108 127.941 64.8901C128.132 64.9694 128.326 65.0091 128.522 65.0091C128.858 65.0091 129.12 64.9216 129.309 64.7466C129.498 64.5693 129.593 64.3289 129.593 64.0256C129.593 63.7969 129.548 63.6161 129.46 63.4831C129.373 63.3501 129.255 63.2556 129.106 63.1996C128.957 63.1413 128.786 63.1121 128.595 63.1121H128.189L128.263 62.6466H128.546C128.702 62.6466 128.849 62.6174 128.987 62.5591C129.127 62.4984 129.241 62.4051 129.33 62.2791C129.419 62.1531 129.463 61.9956 129.463 61.8066C129.463 61.5406 129.374 61.3376 129.197 61.1976C129.02 61.0576 128.805 60.9876 128.553 60.9876C128.343 60.9876 128.16 61.0249 128.004 61.0996C127.847 61.1719 127.69 61.2828 127.531 61.4321L127.206 61.0716C127.411 60.8779 127.629 60.7379 127.86 60.6516C128.091 60.5629 128.329 60.5186 128.574 60.5186ZM129.309 69.5956V74.2751H128.721V70.2326L127.615 70.9046L127.36 70.4846L128.795 69.5956H129.309ZM130.317 73.9356V74.4151H127.535V73.9356H130.317ZM130.104 78.5956L130.016 79.0646H128.112V80.5836C128.259 80.5043 128.398 80.4506 128.529 80.4226C128.662 80.3923 128.8 80.3771 128.945 80.3771C129.206 80.3771 129.436 80.4366 129.635 80.5556C129.833 80.6723 129.987 80.8438 130.097 81.0701C130.206 81.2964 130.261 81.5694 130.261 81.8891C130.261 82.2088 130.193 82.4899 130.058 82.7326C129.925 82.9753 129.737 83.1631 129.495 83.2961C129.252 83.4291 128.964 83.4956 128.63 83.4956C128.341 83.4956 128.082 83.4443 127.853 83.3416C127.627 83.2389 127.42 83.0966 127.234 82.9146L127.598 82.5646C127.745 82.7139 127.902 82.8259 128.07 82.9006C128.24 82.9729 128.429 83.0091 128.637 83.0091C128.954 83.0091 129.202 82.9134 129.379 82.7221C129.556 82.5284 129.645 82.2449 129.645 81.8716C129.645 81.6126 129.607 81.4084 129.53 81.2591C129.453 81.1098 129.348 81.0036 129.215 80.9406C129.084 80.8753 128.938 80.8426 128.777 80.8426C128.635 80.8426 128.509 80.8566 128.399 80.8846C128.289 80.9103 128.165 80.9499 128.025 81.0036H127.552V78.5956H130.104ZM129.915 89.9826C129.915 89.5626 129.87 89.2266 129.782 88.9746C129.693 88.7226 129.576 88.5336 129.432 88.4076C129.287 88.2816 129.128 88.1976 128.956 88.1556C128.785 88.1136 128.617 88.0926 128.452 88.0926H127.885V91.9286H128.459C128.631 91.9286 128.803 91.9018 128.973 91.8481C129.146 91.7921 129.303 91.6941 129.446 91.5541C129.588 91.4118 129.701 91.2146 129.785 90.9626C129.871 90.7083 129.915 90.3816 129.915 89.9826ZM130.562 89.9826C130.562 90.3839 130.519 90.7269 130.433 91.0116C130.349 91.2939 130.233 91.5273 130.086 91.7116C129.939 91.8959 129.771 92.0394 129.582 92.1421C129.395 92.2424 129.198 92.3136 128.991 92.3556C128.785 92.3953 128.583 92.4151 128.385 92.4151H127.279V87.5956H128.308C128.59 87.5956 128.865 87.6271 129.131 87.6901C129.399 87.7531 129.64 87.8698 129.855 88.0401C130.072 88.2081 130.244 88.4484 130.37 88.7611C130.498 89.0738 130.562 89.4809 130.562 89.9826ZM128.613 96.5186L129.103 96.7251L127.822 99.7736H130.394V100.243H127.199V99.8156L128.613 96.5186ZM129.771 98.4051V101.415H129.204L129.201 99.8856L129.281 98.4051H129.771ZM129.309 105.596V110.275H128.721V106.233L127.615 106.905L127.36 106.485L128.795 105.596H129.309ZM130.317 109.936V110.415H127.535V109.936H130.317Z" fill="url(#paint3_linear_11_9)"/>
<path d="M47.8879 72.6881C48.9285 72.6881 49.7149 73.1175 50.2469 73.9761C50.7789 74.8348 51.0449 76.0621 51.0449 77.6581C51.0449 79.2588 50.7789 80.4908 50.2469 81.3541C49.7149 82.2128 48.9285 82.6421 47.8879 82.6421C46.8519 82.6421 46.0655 82.2128 45.5289 81.3541C44.9969 80.4908 44.7309 79.2588 44.7309 77.6581C44.7309 76.0621 44.9969 74.8348 45.5289 73.9761C46.0655 73.1175 46.8519 72.6881 47.8879 72.6881ZM47.8879 73.6331C47.2952 73.6331 46.8285 73.9481 46.4879 74.5781C46.1472 75.2035 45.9769 76.2301 45.9769 77.6581C45.9769 78.3815 46.0142 78.9998 46.0889 79.5131C46.1635 80.0265 46.2779 80.4441 46.4319 80.7661C46.5905 81.0835 46.7889 81.3168 47.0269 81.4661C47.2695 81.6155 47.5565 81.6901 47.8879 81.6901C48.2892 81.6901 48.6322 81.5525 48.9169 81.2771C49.2062 81.0018 49.4255 80.5678 49.5749 79.9751C49.7289 79.3778 49.8059 78.6055 49.8059 77.6581C49.8059 76.6968 49.7382 75.9198 49.6029 75.3271C49.4722 74.7345 49.2645 74.3051 48.9799 74.0391C48.6999 73.7685 48.3359 73.6331 47.8879 73.6331ZM49.3089 73.9761L49.6169 75.0051L46.5509 81.2141L46.1169 80.3951L49.3089 73.9761ZM49.7569 98.0241H45.9419L45.1719 100.481H43.9749L47.1109 90.8421H48.6649L51.8009 100.481H50.5269L49.7569 98.0241ZM46.2569 97.0161H49.4419L47.8599 91.8641L46.2569 97.0161ZM47.4469 108.688C48.0535 108.688 48.5762 108.798 49.0149 109.017C49.4582 109.232 49.8012 109.523 50.0439 109.892C50.2865 110.256 50.4079 110.657 50.4079 111.096C50.4079 111.483 50.3215 111.836 50.1489 112.153C49.9762 112.47 49.7475 112.732 49.4629 112.937C49.1782 113.142 48.8655 113.278 48.5249 113.343C48.9029 113.371 49.2575 113.478 49.5889 113.665C49.9202 113.847 50.1909 114.108 50.4009 114.449C50.6109 114.785 50.7159 115.203 50.7159 115.702C50.7159 116.257 50.5759 116.759 50.2959 117.207C50.0159 117.65 49.6239 118 49.1199 118.257C48.6205 118.514 48.0372 118.642 47.3699 118.642C46.8332 118.642 46.2965 118.539 45.7599 118.334C45.2279 118.129 44.7775 117.802 44.4089 117.354L45.1999 116.71C45.4752 117.032 45.8019 117.272 46.1799 117.431C46.5625 117.59 46.9499 117.669 47.3419 117.669C48.0139 117.669 48.5389 117.494 48.9169 117.144C49.2949 116.789 49.4839 116.309 49.4839 115.702C49.4839 115.245 49.3952 114.883 49.2179 114.617C49.0452 114.351 48.8095 114.162 48.5109 114.05C48.2122 113.933 47.8715 113.875 47.4889 113.875H46.6769L46.8239 112.944H47.3909C47.7035 112.944 47.9975 112.886 48.2729 112.769C48.5529 112.648 48.7815 112.461 48.9589 112.209C49.1362 111.957 49.2249 111.642 49.2249 111.264C49.2249 110.732 49.0475 110.326 48.6929 110.046C48.3382 109.766 47.9089 109.626 47.4049 109.626C46.9849 109.626 46.6185 109.701 46.3059 109.85C45.9932 109.995 45.6782 110.216 45.3609 110.515L44.7099 109.794C45.1205 109.407 45.5569 109.127 46.0189 108.954C46.4809 108.777 46.9569 108.688 47.4469 108.688ZM48.9169 126.842V136.201H47.7409V128.116L45.5289 129.46L45.0179 128.62L47.8879 126.842H48.9169ZM50.9329 135.522V136.481H45.3679V135.522H50.9329ZM50.5059 144.842L50.3309 145.78H46.5229V148.818C46.8169 148.659 47.0945 148.552 47.3559 148.496C47.6219 148.435 47.8995 148.405 48.1889 148.405C48.7115 148.405 49.1712 148.524 49.5679 148.762C49.9645 148.995 50.2725 149.338 50.4919 149.791C50.7112 150.244 50.8209 150.79 50.8209 151.429C50.8209 152.068 50.6855 152.631 50.4149 153.116C50.1489 153.601 49.7732 153.977 49.2879 154.243C48.8025 154.509 48.2262 154.642 47.5589 154.642C46.9802 154.642 46.4622 154.539 46.0049 154.334C45.5522 154.129 45.1392 153.844 44.7659 153.48L45.4939 152.78C45.7879 153.079 46.1029 153.303 46.4389 153.452C46.7795 153.597 47.1575 153.669 47.5729 153.669C48.2075 153.669 48.7022 153.478 49.0569 153.095C49.4115 152.708 49.5889 152.141 49.5889 151.394C49.5889 150.876 49.5119 150.468 49.3579 150.169C49.2039 149.87 48.9939 149.658 48.7279 149.532C48.4665 149.401 48.1749 149.336 47.8529 149.336C47.5682 149.336 47.3162 149.364 47.0969 149.42C46.8775 149.471 46.6279 149.551 46.3479 149.658H45.4029V144.842H50.5059ZM50.1279 167.616C50.1279 166.776 50.0392 166.104 49.8619 165.6C49.6845 165.096 49.4512 164.718 49.1619 164.466C48.8725 164.214 48.5552 164.046 48.2099 163.962C47.8692 163.878 47.5332 163.836 47.2019 163.836H46.0679V171.508H47.2159C47.5612 171.508 47.9042 171.454 48.2449 171.347C48.5902 171.235 48.9052 171.039 49.1899 170.759C49.4745 170.474 49.7009 170.08 49.8689 169.576C50.0415 169.067 50.1279 168.414 50.1279 167.616ZM51.4229 167.616C51.4229 168.419 51.3365 169.105 51.1639 169.674C50.9959 170.239 50.7649 170.705 50.4709 171.074C50.1769 171.443 49.8409 171.73 49.4629 171.935C49.0895 172.136 48.6952 172.278 48.2799 172.362C47.8692 172.441 47.4655 172.481 47.0689 172.481H44.8569V162.842H46.9149C47.4795 162.842 48.0279 162.905 48.5599 163.031C49.0965 163.157 49.5795 163.39 50.0089 163.731C50.4429 164.067 50.7859 164.548 51.0379 165.173C51.2945 165.798 51.4229 166.613 51.4229 167.616ZM51.2129 183.544C51.2129 184.025 51.1079 184.445 50.8979 184.804C50.6925 185.163 50.4125 185.46 50.0579 185.693C49.7032 185.926 49.3042 186.097 48.8609 186.204L51.7169 190.481H50.2609L47.6289 186.344H46.3269V190.481H45.1089V180.842H47.5869C48.7769 180.842 49.6775 181.071 50.2889 181.528C50.9049 181.981 51.2129 182.653 51.2129 183.544ZM49.9109 183.544C49.9109 182.923 49.7335 182.48 49.3789 182.214C49.0242 181.943 48.4735 181.808 47.7269 181.808H46.3269V185.392H47.7269C48.4175 185.392 48.9542 185.252 49.3369 184.972C49.7195 184.687 49.9109 184.211 49.9109 183.544ZM48.0769 208.642C47.3162 208.642 46.6535 208.458 46.0889 208.089C45.5289 207.72 45.0949 207.167 44.7869 206.43C44.4789 205.693 44.3249 204.769 44.3249 203.658C44.3249 202.827 44.4345 202.102 44.6539 201.481C44.8779 200.86 45.1789 200.342 45.5569 199.927C45.9395 199.512 46.3712 199.201 46.8519 198.996C47.3372 198.791 47.8389 198.688 48.3569 198.688C48.9869 198.688 49.5095 198.779 49.9249 198.961C50.3402 199.138 50.7369 199.4 51.1149 199.745L50.3799 200.508C50.0859 200.233 49.7755 200.03 49.4489 199.899C49.1269 199.768 48.7652 199.703 48.3639 199.703C48.0139 199.703 47.6755 199.771 47.3489 199.906C47.0222 200.041 46.7282 200.263 46.4669 200.571C46.2102 200.874 46.0049 201.278 45.8509 201.782C45.7015 202.286 45.6269 202.911 45.6269 203.658C45.6269 204.587 45.7225 205.343 45.9139 205.926C46.1099 206.509 46.3969 206.939 46.7749 207.214C47.1575 207.485 47.6289 207.62 48.1889 207.62C48.5249 207.62 48.8422 207.58 49.1409 207.501C49.4442 207.422 49.7382 207.307 50.0229 207.158V204.218H48.1259L47.9789 203.21H51.2269V207.802C50.7929 208.035 50.3309 208.234 49.8409 208.397C49.3509 208.56 48.7629 208.642 48.0769 208.642Z" fill="url(#paint4_linear_11_9)"/>
<defs>
<linearGradient id="paint0_linear_11_9" x1="6.55317" y1="7.85849" x2="6.55317" y2="169.519" gradientUnits="userSpaceOnUse">
<stop stop-color="#A5EA13"/>
<stop offset="1" stop-color="#1382EA" stop-opacity="0"/>
</linearGradient>
<linearGradient id="paint1_linear_11_9" x1="74.9974" y1="0" x2="74.9974" y2="80.8302" gradientUnits="userSpaceOnUse">
<stop stop-color="#A5EA13"/>
<stop offset="1" stop-color="#1382EA" stop-opacity="0"/>
</linearGradient>
<linearGradient id="paint2_linear_11_9" x1="99.7539" y1="116.755" x2="99.7539" y2="197.585" gradientUnits="userSpaceOnUse">
<stop stop-color="#A5EA13"/>
<stop offset="1" stop-color="#1382EA" stop-opacity="0"/>
</linearGradient>
<linearGradient id="paint3_linear_11_9" x1="130.335" y1="40.4151" x2="130.335" y2="121.245" gradientUnits="userSpaceOnUse">
<stop stop-color="#A5EA13"/>
<stop offset="1" stop-color="#1382EA" stop-opacity="0"/>
</linearGradient>
<linearGradient id="paint4_linear_11_9" x1="50.241" y1="68.4811" x2="50.241" y2="230.142" gradientUnits="userSpaceOnUse">
<stop stop-color="#A5EA13"/>
<stop offset="1" stop-color="#1382EA" stop-opacity="0"/>
</linearGradient>
</defs>
</svg>
