<svg width="249" height="34" viewBox="0 0 249 34" fill="none" xmlns="http://www.w3.org/2000/svg">
<rect x="0.7" y="0.7" width="247.6" height="32.6" rx="16.3" fill="white" stroke="url(#paint0_linear_31_8)" stroke-width="1.4"/>
<circle cx="17" cy="17" r="14" fill="#0B0B0B"/>
<path d="M48.432 10.49V12.164H45.102V23H43.05V12.164H39.702V10.49H48.432ZM59.4922 13.082V23H57.4402V21.83C57.1162 22.238 56.6902 22.562 56.1622 22.802C55.6462 23.03 55.0942 23.144 54.5062 23.144C53.7262 23.144 53.0242 22.982 52.4002 22.658C51.7882 22.334 51.3022 21.854 50.9422 21.218C50.5942 20.582 50.4202 19.814 50.4202 18.914V13.082H52.4542V18.608C52.4542 19.496 52.6762 20.18 53.1202 20.66C53.5642 21.128 54.1702 21.362 54.9382 21.362C55.7062 21.362 56.3122 21.128 56.7562 20.66C57.2122 20.18 57.4402 19.496 57.4402 18.608V13.082H59.4922ZM64.2516 14.522C64.5516 14.018 64.9476 13.628 65.4396 13.352C65.9436 13.064 66.5376 12.92 67.2216 12.92V15.044H66.6996C65.8956 15.044 65.2836 15.248 64.8636 15.656C64.4556 16.064 64.2516 16.772 64.2516 17.78V23H62.1996V13.082H64.2516V14.522ZM74.1118 12.92C74.8918 12.92 75.5878 13.082 76.1998 13.406C76.8238 13.73 77.3098 14.21 77.6578 14.846C78.0058 15.482 78.1798 16.25 78.1798 17.15V23H76.1458V17.456C76.1458 16.568 75.9238 15.89 75.4798 15.422C75.0358 14.942 74.4298 14.702 73.6618 14.702C72.8938 14.702 72.2818 14.942 71.8258 15.422C71.3818 15.89 71.1598 16.568 71.1598 17.456V23H69.1078V13.082H71.1598V14.216C71.4958 13.808 71.9218 13.49 72.4378 13.262C72.9658 13.034 73.5238 12.92 74.1118 12.92ZM89.775 23.162C88.839 23.162 87.993 22.952 87.237 22.532C86.481 22.1 85.887 21.5 85.455 20.732C85.023 19.952 84.807 19.052 84.807 18.032C84.807 17.024 85.029 16.13 85.473 15.35C85.917 14.57 86.523 13.97 87.291 13.55C88.059 13.13 88.917 12.92 89.865 12.92C90.813 12.92 91.671 13.13 92.439 13.55C93.207 13.97 93.813 14.57 94.257 15.35C94.701 16.13 94.923 17.024 94.923 18.032C94.923 19.04 94.695 19.934 94.239 20.714C93.783 21.494 93.159 22.1 92.367 22.532C91.587 22.952 90.723 23.162 89.775 23.162ZM89.775 21.38C90.303 21.38 90.795 21.254 91.251 21.002C91.719 20.75 92.097 20.372 92.385 19.868C92.673 19.364 92.817 18.752 92.817 18.032C92.817 17.312 92.679 16.706 92.403 16.214C92.127 15.71 91.761 15.332 91.305 15.08C90.849 14.828 90.357 14.702 89.829 14.702C89.301 14.702 88.809 14.828 88.353 15.08C87.909 15.332 87.555 15.71 87.291 16.214C87.027 16.706 86.895 17.312 86.895 18.032C86.895 19.1 87.165 19.928 87.705 20.516C88.257 21.092 88.947 21.38 89.775 21.38ZM101.956 12.92C102.736 12.92 103.432 13.082 104.044 13.406C104.668 13.73 105.154 14.21 105.502 14.846C105.85 15.482 106.024 16.25 106.024 17.15V23H103.99V17.456C103.99 16.568 103.768 15.89 103.324 15.422C102.88 14.942 102.274 14.702 101.506 14.702C100.738 14.702 100.126 14.942 99.6696 15.422C99.2256 15.89 99.0036 16.568 99.0036 17.456V23H96.9516V13.082H99.0036V14.216C99.3396 13.808 99.7656 13.49 100.282 13.262C100.81 13.034 101.368 12.92 101.956 12.92ZM118.321 12.92C119.101 12.92 119.797 13.082 120.409 13.406C121.033 13.73 121.519 14.21 121.867 14.846C122.215 15.482 122.389 16.25 122.389 17.15V23H120.355V17.456C120.355 16.568 120.133 15.89 119.689 15.422C119.245 14.942 118.639 14.702 117.871 14.702C117.103 14.702 116.491 14.942 116.035 15.422C115.591 15.89 115.369 16.568 115.369 17.456V23H113.317V13.082H115.369V14.216C115.705 13.808 116.131 13.49 116.647 13.262C117.175 13.034 117.733 12.92 118.321 12.92ZM126.05 11.768C125.678 11.768 125.366 11.642 125.114 11.39C124.862 11.138 124.736 10.826 124.736 10.454C124.736 10.082 124.862 9.77 125.114 9.518C125.366 9.266 125.678 9.14 126.05 9.14C126.41 9.14 126.716 9.266 126.968 9.518C127.22 9.77 127.346 10.082 127.346 10.454C127.346 10.826 127.22 11.138 126.968 11.39C126.716 11.642 126.41 11.768 126.05 11.768ZM127.058 13.082V23H125.006V13.082H127.058ZM133.748 12.92C134.516 12.92 135.194 13.076 135.782 13.388C136.382 13.688 136.85 14.066 137.186 14.522V13.082H139.256V23.162C139.256 24.074 139.064 24.884 138.68 25.592C138.296 26.312 137.738 26.876 137.006 27.284C136.286 27.692 135.422 27.896 134.414 27.896C133.07 27.896 131.954 27.578 131.066 26.942C130.178 26.318 129.674 25.466 129.554 24.386H131.588C131.744 24.902 132.074 25.316 132.578 25.628C133.094 25.952 133.706 26.114 134.414 26.114C135.242 26.114 135.908 25.862 136.412 25.358C136.928 24.854 137.186 24.122 137.186 23.162V21.506C136.838 21.974 136.364 22.37 135.764 22.694C135.176 23.006 134.504 23.162 133.748 23.162C132.884 23.162 132.092 22.946 131.372 22.514C130.664 22.07 130.1 21.458 129.68 20.678C129.272 19.886 129.068 18.992 129.068 17.996C129.068 17 129.272 16.118 129.68 15.35C130.1 14.582 130.664 13.988 131.372 13.568C132.092 13.136 132.884 12.92 133.748 12.92ZM137.186 18.032C137.186 17.348 137.042 16.754 136.754 16.25C136.478 15.746 136.112 15.362 135.656 15.098C135.2 14.834 134.708 14.702 134.18 14.702C133.652 14.702 133.16 14.834 132.704 15.098C132.248 15.35 131.876 15.728 131.588 16.232C131.312 16.724 131.174 17.312 131.174 17.996C131.174 18.68 131.312 19.28 131.588 19.796C131.876 20.312 132.248 20.708 132.704 20.984C133.172 21.248 133.664 21.38 134.18 21.38C134.708 21.38 135.2 21.248 135.656 20.984C136.112 20.72 136.478 20.336 136.754 19.832C137.042 19.316 137.186 18.716 137.186 18.032ZM147.082 12.92C147.838 12.92 148.51 13.082 149.098 13.406C149.698 13.73 150.166 14.21 150.502 14.846C150.85 15.482 151.024 16.25 151.024 17.15V23H148.99V17.456C148.99 16.568 148.768 15.89 148.324 15.422C147.88 14.942 147.274 14.702 146.506 14.702C145.738 14.702 145.126 14.942 144.67 15.422C144.226 15.89 144.004 16.568 144.004 17.456V23H141.952V9.68H144.004V14.234C144.352 13.814 144.79 13.49 145.318 13.262C145.858 13.034 146.446 12.92 147.082 12.92ZM156.035 14.756V20.246C156.035 20.618 156.119 20.888 156.287 21.056C156.467 21.212 156.767 21.29 157.187 21.29H158.447V23H156.827C155.903 23 155.195 22.784 154.703 22.352C154.211 21.92 153.965 21.218 153.965 20.246V14.756H152.795V13.082H153.965V10.616H156.035V13.082H158.447V14.756H156.035ZM177.02 12.92C177.8 12.92 178.496 13.082 179.108 13.406C179.732 13.73 180.218 14.21 180.566 14.846C180.926 15.482 181.106 16.25 181.106 17.15V23H179.072V17.456C179.072 16.568 178.85 15.89 178.406 15.422C177.962 14.942 177.356 14.702 176.588 14.702C175.82 14.702 175.208 14.942 174.752 15.422C174.308 15.89 174.086 16.568 174.086 17.456V23H172.052V17.456C172.052 16.568 171.83 15.89 171.386 15.422C170.942 14.942 170.336 14.702 169.568 14.702C168.8 14.702 168.188 14.942 167.732 15.422C167.288 15.89 167.066 16.568 167.066 17.456V23H165.014V13.082H167.066V14.216C167.402 13.808 167.828 13.49 168.344 13.262C168.86 13.034 169.412 12.92 170 12.92C170.792 12.92 171.5 13.088 172.124 13.424C172.748 13.76 173.228 14.246 173.564 14.882C173.864 14.282 174.332 13.808 174.968 13.46C175.604 13.1 176.288 12.92 177.02 12.92ZM188.019 23.162C187.083 23.162 186.237 22.952 185.481 22.532C184.725 22.1 184.131 21.5 183.699 20.732C183.267 19.952 183.051 19.052 183.051 18.032C183.051 17.024 183.273 16.13 183.717 15.35C184.161 14.57 184.767 13.97 185.535 13.55C186.303 13.13 187.161 12.92 188.109 12.92C189.057 12.92 189.915 13.13 190.683 13.55C191.451 13.97 192.057 14.57 192.501 15.35C192.945 16.13 193.167 17.024 193.167 18.032C193.167 19.04 192.939 19.934 192.483 20.714C192.027 21.494 191.403 22.1 190.611 22.532C189.831 22.952 188.967 23.162 188.019 23.162ZM188.019 21.38C188.547 21.38 189.039 21.254 189.495 21.002C189.963 20.75 190.341 20.372 190.629 19.868C190.917 19.364 191.061 18.752 191.061 18.032C191.061 17.312 190.923 16.706 190.647 16.214C190.371 15.71 190.005 15.332 189.549 15.08C189.093 14.828 188.601 14.702 188.073 14.702C187.545 14.702 187.053 14.828 186.597 15.08C186.153 15.332 185.799 15.71 185.535 16.214C185.271 16.706 185.139 17.312 185.139 18.032C185.139 19.1 185.409 19.928 185.949 20.516C186.501 21.092 187.191 21.38 188.019 21.38ZM194.512 17.996C194.512 17 194.716 16.118 195.124 15.35C195.544 14.582 196.108 13.988 196.816 13.568C197.536 13.136 198.334 12.92 199.21 12.92C199.858 12.92 200.494 13.064 201.118 13.352C201.754 13.628 202.258 14 202.63 14.468V9.68H204.7V23H202.63V21.506C202.294 21.986 201.826 22.382 201.226 22.694C200.638 23.006 199.96 23.162 199.192 23.162C198.328 23.162 197.536 22.946 196.816 22.514C196.108 22.07 195.544 21.458 195.124 20.678C194.716 19.886 194.512 18.992 194.512 17.996ZM202.63 18.032C202.63 17.348 202.486 16.754 202.198 16.25C201.922 15.746 201.556 15.362 201.1 15.098C200.644 14.834 200.152 14.702 199.624 14.702C199.096 14.702 198.604 14.834 198.148 15.098C197.692 15.35 197.32 15.728 197.032 16.232C196.756 16.724 196.618 17.312 196.618 17.996C196.618 18.68 196.756 19.28 197.032 19.796C197.32 20.312 197.692 20.708 198.148 20.984C198.616 21.248 199.108 21.38 199.624 21.38C200.152 21.38 200.644 21.248 201.1 20.984C201.556 20.72 201.922 20.336 202.198 19.832C202.486 19.316 202.63 18.716 202.63 18.032ZM216.485 17.798C216.485 18.17 216.461 18.506 216.413 18.806H208.835C208.895 19.598 209.189 20.234 209.717 20.714C210.245 21.194 210.893 21.434 211.661 21.434C212.765 21.434 213.545 20.972 214.001 20.048H216.215C215.915 20.96 215.369 21.71 214.577 22.298C213.797 22.874 212.825 23.162 211.661 23.162C210.713 23.162 209.861 22.952 209.105 22.532C208.361 22.1 207.773 21.5 207.341 20.732C206.921 19.952 206.711 19.052 206.711 18.032C206.711 17.012 206.915 16.118 207.323 15.35C207.743 14.57 208.325 13.97 209.069 13.55C209.825 13.13 210.689 12.92 211.661 12.92C212.597 12.92 213.431 13.124 214.163 13.532C214.895 13.94 215.465 14.516 215.873 15.26C216.281 15.992 216.485 16.838 216.485 17.798ZM214.343 17.15C214.331 16.394 214.061 15.788 213.533 15.332C213.005 14.876 212.351 14.648 211.571 14.648C210.863 14.648 210.257 14.876 209.753 15.332C209.249 15.776 208.949 16.382 208.853 17.15H214.343ZM221.078 10.49L220.844 19.22H219.134L218.9 10.49H221.078ZM220.052 23.126C219.68 23.126 219.368 23 219.116 22.748C218.864 22.496 218.738 22.184 218.738 21.812C218.738 21.44 218.864 21.128 219.116 20.876C219.368 20.624 219.68 20.498 220.052 20.498C220.412 20.498 220.718 20.624 220.97 20.876C221.222 21.128 221.348 21.44 221.348 21.812C221.348 22.184 221.222 22.496 220.97 22.748C220.718 23 220.412 23.126 220.052 23.126Z" fill="black"/>
<path d="M26 17.79C25.8427 19.4922 25.2039 21.1144 24.1582 22.4668C23.1126 23.8192 21.7035 24.8458 20.0957 25.4265C18.4879 26.0073 16.748 26.1181 15.0795 25.7461C13.411 25.3741 11.883 24.5345 10.6742 23.3258C9.46545 22.117 8.62593 20.589 8.2539 18.9205C7.88187 17.252 7.99271 15.5121 8.57345 13.9043C9.1542 12.2965 10.1808 10.8874 11.5332 9.84175C12.8856 8.79614 14.5078 8.15731 16.21 8C15.2134 9.34827 14.7338 11.0094 14.8585 12.6814C14.9832 14.3534 15.7039 15.9251 16.8894 17.1106C18.0749 18.2961 19.6466 19.0168 21.3186 19.1415C22.9905 19.2662 24.6517 18.7866 26 17.79Z" stroke="white" stroke-width="2" stroke-linecap="round" stroke-linejoin="round"/>
<defs>
<linearGradient id="paint0_linear_31_8" x1="232.5" y1="17" x2="23.5" y2="17.0001" gradientUnits="userSpaceOnUse">
<stop stop-color="#E1CC11"/>
<stop offset="0.28125" stop-color="#2973E2"/>
<stop offset="0.703125" stop-color="#F02B2B"/>
<stop offset="1" stop-color="#3AE274"/>
</linearGradient>
</defs>
</svg>
